<svg width="375" height="128" viewBox="0 0 375 128" fill="none" xmlns="http://www.w3.org/2000/svg">
<g clip-path="url(#clip0_569:2927)">
<path d="M93.8564 65.4146L93.6999 66.4023L93.0742 70.3531L92.0865 70.1966L91.9301 71.1843L91.1742 75.9569C91.1397 76.0607 91.1224 76.1696 91.1232 76.279L90.9915 77.1105L95.2393 77.7832C95.0975 77.914 94.9164 78.0279 94.7915 78.1632C94.0761 78.9388 93.6156 79.7198 93.4852 80.5428C93.4576 80.7034 93.4697 80.8682 93.5203 81.023C93.5709 81.1779 93.6585 81.318 93.7756 81.4312C93.4315 81.906 93.2067 82.4513 93.1173 83.0157C92.9849 83.8515 93.1228 84.7435 93.6072 85.5038C94.0915 86.2642 94.9479 86.8493 96.0151 87.0183C97.0824 87.1873 98.0776 86.8956 98.7732 86.3221C99.3319 85.8615 99.6957 85.2499 99.8892 84.5945L101.905 84.9138L103.881 85.2267L106.907 85.7061C106.889 86.3892 107.046 87.0833 107.435 87.6939C107.919 88.4543 108.776 89.0394 109.843 89.2084C110.91 89.3774 111.905 89.0856 112.601 88.5121C113.296 87.9387 113.703 87.1329 113.836 86.2972C113.968 85.4614 113.83 84.5694 113.346 83.809C113.066 83.37 112.651 83.0024 112.155 82.7266L112.103 82.4791L113.395 82.6838C113.526 82.7064 113.66 82.7028 113.789 82.6732C113.918 82.6437 114.04 82.5887 114.148 82.5116C114.256 82.4344 114.347 82.3367 114.417 82.2239C114.486 82.1112 114.533 81.9857 114.554 81.8548C114.574 81.7239 114.569 81.5902 114.537 81.4614C114.506 81.3327 114.449 81.2115 114.371 81.1048C114.292 80.9981 114.193 80.9082 114.079 80.8401C113.966 80.7721 113.839 80.7273 113.708 80.7085L111.675 80.3864L110.605 75.1547L111.952 75.3679C112.264 75.4174 112.555 75.205 112.604 74.8938L112.895 73.0574C112.945 72.7453 112.733 72.4543 112.421 72.4049L110.515 72.103C109.697 71.9735 108.929 72.5321 108.799 73.3499C108.771 73.5238 108.781 73.6942 108.811 73.8581L106.745 73.5308C106.615 73.5083 106.481 73.5119 106.352 73.5414C106.223 73.571 106.101 73.626 105.993 73.7031C105.885 73.7802 105.794 73.878 105.724 73.9908C105.654 74.1035 105.608 74.229 105.587 74.3599C105.566 74.4908 105.572 74.6245 105.603 74.7532C105.635 74.882 105.691 75.0032 105.77 75.1099C105.849 75.2165 105.948 75.3065 106.062 75.3745C106.175 75.4426 106.301 75.4873 106.433 75.5062L108.711 75.8671L108.86 76.5967L108.793 76.5446L103.613 83.1593L102.218 82.9384C102.228 82.8736 102.232 82.808 102.229 82.7425L102.072 78.8655L102.844 78.9877C102.974 79.0103 103.108 79.0067 103.237 78.9771C103.366 78.9475 103.488 78.8926 103.596 78.8154C103.704 78.7383 103.795 78.6405 103.865 78.5278C103.935 78.415 103.981 78.2895 104.002 78.1586C104.023 78.0278 104.017 77.894 103.986 77.7653C103.954 77.6365 103.898 77.5153 103.819 77.4086C103.74 77.302 103.641 77.212 103.528 77.144C103.414 77.0759 103.288 77.0312 103.157 77.0123L98.3358 76.2488C98.2987 76.2387 98.261 76.2307 98.2229 76.2249C98.2217 76.2247 98.2204 76.2245 98.2191 76.2243L98.6875 73.2671L99.6752 73.4235L100.77 66.5097L93.8564 65.4146ZM95.5189 67.7029L98.482 68.1722L98.0126 71.1352L95.0496 70.6659L95.5189 67.7029ZM93.749 72.4849L96.7121 72.9542L96.2428 75.9173L93.2797 75.448L93.749 72.4849ZM96.7973 82.0799C97.3683 82.1703 97.6433 82.3972 97.8314 82.6925C98.0195 82.9878 98.0958 83.3953 98.0326 83.7942C97.9694 84.1931 97.7709 84.5571 97.5008 84.7798C97.2306 85.0025 96.899 85.1334 96.328 85.0429C95.757 84.9525 95.482 84.7256 95.2939 84.4303C95.1058 84.135 95.0295 83.7275 95.0927 83.3286C95.1559 82.9297 95.3543 82.5657 95.6245 82.343C95.8947 82.1203 96.2263 81.9894 96.7973 82.0799ZM110.625 84.27C111.196 84.3604 111.471 84.5873 111.659 84.8826C111.847 85.1779 111.923 85.5854 111.86 85.9843C111.797 86.3832 111.599 86.7472 111.328 86.9699C111.058 87.1926 110.727 87.3235 110.156 87.233C109.585 87.1426 109.31 86.9157 109.122 86.6203C108.933 86.325 108.857 85.9175 108.92 85.5187C108.983 85.1198 109.182 84.7558 109.452 84.5331C109.722 84.3104 110.054 84.1795 110.625 84.27Z" fill="black"/>
</g>
<path d="M354 2C353.738 2 353.503 2.10648 353.324 2.27148L348.398 6.30273C347.973 6.11332 347.507 6 347 6C345.995 6 345.135 6.44509 344.438 7.05664C344.29 7.03765 344.16 7 344 7C342.039 7 340.456 8.45639 340.125 10.3242C339.464 11.0332 339 11.9486 339 13C339 13.7457 339.261 14.4065 339.617 15C339.261 15.5935 339 16.2543 339 17C339 18.6267 340.056 19.9229 341.457 20.543C342.077 21.9441 343.373 23 345 23C345.354 23 345.684 22.9306 346 22.832V25C345.998 25.1325 346.023 25.2641 346.072 25.387C346.121 25.51 346.195 25.6219 346.288 25.7163C346.381 25.8107 346.492 25.8856 346.614 25.9368C346.736 25.9879 346.867 26.0142 347 26.0142C347.133 26.0142 347.264 25.9879 347.386 25.9368C347.508 25.8856 347.619 25.8107 347.712 25.7163C347.805 25.6219 347.879 25.51 347.928 25.387C347.977 25.2641 348.002 25.1325 348 25V22C348.001 21.911 347.99 21.8223 347.967 21.7363C348.297 21.8602 348.619 22 349 22C349.348 22 349.679 21.9393 350 21.8535V26H362C363.105 26 364 25.105 364 24V13H365C365.552 13 366 12.552 366 12C366 11.711 365.875 11.4554 365.68 11.2734L364 9.89844V6C364 5.448 363.552 5 363 5H362C361.448 5 361 5.448 361 6V7.44531L354.676 2.27148C354.497 2.10648 354.262 2 354 2ZM347 8C347.881 8 348.604 8.56304 348.877 9.34766L349.129 10.0664L349.889 10.0156C350.061 10.0041 350.092 10 350 10C351.117 10 352 10.8833 352 12C352 12.1415 351.977 12.2948 351.936 12.4668L351.789 13.0723L352.27 13.4727C352.72 13.8469 353 14.3809 353 15C353 15.8808 352.437 16.6038 351.652 16.877L350.934 17.1289L350.984 17.8887C350.996 18.0613 351 18.092 351 18C351 19.1167 350.117 20 349 20C348.653 20 348.33 19.9041 348.023 19.7305L347.195 19.2617L346.686 20.0645C346.328 20.6281 345.716 21 345 21C344.089 21 343.347 20.4 343.098 19.5723L342.943 19.0566L342.428 18.9023C341.6 18.653 341 17.9111 341 17C341 16.4871 341.194 16.0339 341.521 15.6699L342.125 15L341.521 14.3301C341.194 13.9661 341 13.5129 341 13C341 12.4024 341.262 11.8819 341.686 11.5078L341.988 11.2402L342.021 10.8379C342.106 9.80165 342.941 9 344 9C344.141 9 344.295 9.02259 344.467 9.06445L345.072 9.21094L345.473 8.73047C345.847 8.28008 346.381 8 347 8ZM357 17H361V21H357V17Z" fill="black"/>
<path d="M-5 25V30L-5.125 30.8438C-5.16016 31.0508 -6 35.9453 -6 38.5C-6 40.1172 -5.62109 41.4062 -4.9375 42.3438C-4.95703 42.332 -4.98047 42.3242 -5 42.3125V67H37V42.3125C36.9805 42.3242 36.9609 42.332 36.9375 42.3438C37.6211 41.4062 38 40.1172 38 38.5C38 35.9453 37.1602 31.0508 37.125 30.8438L36.9688 30H37V25H-5ZM-3.3125 32H1V40.9062C0.34375 41.5859 -0.578125 42 -1.5 42C-3.16016 42 -4 40.8203 -4 38.5C-4 36.7109 -3.54297 33.5117 -3.3125 32ZM3 32H8V40.9062C7.34375 41.5859 6.42188 42 5.5 42C4.57812 42 3.65625 41.582 3 40.9062V32ZM10 32H15V40.9062C14.3438 41.5859 13.4219 42 12.5 42C11.5781 42 10.6562 41.582 10 40.9062V32ZM17 32H22V40.9062C21.3438 41.5859 20.4219 42 19.5 42C18.5781 42 17.6562 41.582 17 40.9062V32ZM24 32H29V40.9062C28.3438 41.5859 27.4219 42 26.5 42C25.5781 42 24.6562 41.582 24 40.9062V32ZM31 32H35.2812C35.5195 33.5117 36 36.7109 36 38.5C36 40.8203 35.1602 42 33.5 42C32.5781 42 31.6562 41.582 31 40.9062V32ZM1 49H17V61H1V49ZM22 49H31V65H22V49Z" fill="black"/>
<path fill-rule="evenodd" clip-rule="evenodd" d="M0 49L16 56C31 64 63 79 94 87C125 94 156 94 188 83C219 72 250 49 281 38C313 26 344 26 359 26H375V128H359C344 128 313 128 281 128C250 128 219 128 188 128C156 128 125 128 94 128C63 128 31 128 16 128H0V49Z" fill="#FEC02C"/>
<defs>
<clipPath id="clip0_569:2927">
<rect width="24" height="24" fill="white" transform="translate(93.0249 64.2705) rotate(9)"/>
</clipPath>
</defs>
</svg>
