<svg width="375" height="298" viewBox="0 0 375 298" fill="none" xmlns="http://www.w3.org/2000/svg">
<path d="M182.637 32.9804C163.692 32.9804 145.877 37.66 130.125 45.7196C130.086 45.6706 130.047 45.6221 130.009 45.5739C129.467 44.8936 128.982 44.284 128.397 43.6828C128.382 42.3254 128.218 40.9681 127.906 39.6135C144.289 31.2408 162.903 26.4097 182.637 26.4097C202.369 26.4097 220.984 31.2408 237.365 39.6135C237.054 40.9674 236.89 42.324 236.875 43.6808C236.267 44.2882 235.635 44.9335 235.109 45.6994C219.366 37.6522 201.565 32.9804 182.637 32.9804Z" fill="#FFC300" stroke="black"/>
<path d="M284.574 94.7609C285.226 94.2622 285.971 93.6533 286.614 93.0315C288.044 93.0305 289.311 92.867 290.704 92.5427C298.926 108.858 303.776 127.393 303.776 147.041C303.776 166.5 298.927 185.217 290.522 201.532C289.245 201.21 287.833 201.052 286.426 201.051C285.817 200.445 285.171 199.817 284.403 199.293C292.481 183.617 297.174 165.89 297.174 147.041C297.174 128.18 292.475 110.443 284.574 94.7609Z" fill="#FFC300" stroke="black"/>
<path d="M235.14 248.367C235.64 249.016 236.251 249.759 236.875 250.398C236.89 251.757 237.054 253.114 237.365 254.469C220.983 262.842 202.37 267.673 182.826 267.673C163.093 267.673 144.478 262.841 127.907 254.467C128.218 253.114 128.382 251.758 128.397 250.401C129.006 249.794 129.638 249.149 130.164 248.383C145.907 256.429 163.708 261.102 182.637 261.102C201.577 261.102 219.39 256.423 235.14 248.367Z" fill="#FFC300" stroke="black"/>
<path d="M78.6848 201.053C77.6161 201.072 76.5314 201.264 75.5592 201.435C75.2862 201.483 75.0221 201.529 74.7696 201.57C66.3541 185.249 61.4971 166.702 61.4971 147.041C61.4971 127.395 66.3464 108.863 74.7497 92.551C76.0264 92.8722 77.4393 93.0302 78.8458 93.0315C79.4553 93.6374 80.1023 94.2659 80.8692 94.789C72.7905 110.466 68.0996 128.192 68.0996 147.041C68.0996 165.89 72.7905 183.617 80.8693 199.294C80.3376 199.656 79.8443 200.075 79.3529 200.493C79.1309 200.682 78.9093 200.87 78.6848 201.053Z" fill="#FFC300" stroke="black"/>
<path d="M295.992 52.8776L296.069 53.2851H296.483H301.045C302.429 53.2851 303.776 54.7129 303.776 56.3822V59.7882C303.776 61.6294 302.445 62.8853 301.045 62.8853H296.483H296.093L295.998 63.2635C295.25 66.2416 294.13 68.844 292.636 71.2607L292.428 71.5981L292.709 71.878L295.94 75.0957L295.954 75.1092L295.968 75.1217C296.491 75.568 296.738 76.2551 296.697 77.0088C296.656 77.7641 296.326 78.5453 295.751 79.1181L293.28 81.5784C292.611 82.245 291.786 82.568 290.972 82.568C290.373 82.568 289.733 82.2654 289.234 81.7681L286.002 78.5504L285.708 78.2572L285.366 78.493C282.951 80.1573 280.355 81.2648 277.385 81.8206L276.977 81.897V82.3121V86.8534C276.977 88.228 275.548 89.5711 273.866 89.5711H270.254C268.402 89.5711 267.143 88.2441 267.143 86.8534V82.3121V81.9213L266.764 81.8269C263.773 81.0819 261.159 79.9664 258.732 78.4784L258.397 78.2728L258.118 78.5504L254.887 81.7681L254.862 81.7932L254.84 81.8217C254.399 82.4077 253.82 82.568 253.149 82.568C252.335 82.568 251.51 82.245 250.842 81.5787L250.842 81.5784L248.371 79.1181C247.198 77.9501 247.083 76.1877 248.18 75.0959L248.181 75.0957L251.412 71.878L251.693 71.5981L251.484 71.2607C249.977 68.8236 248.682 66.234 248.129 63.2928L248.052 62.8853H247.637H243.075C241.691 62.8853 240.344 61.4576 240.344 59.7882V56.1925C240.344 54.3516 241.675 53.0969 243.075 53.0969H247.637H248.027L248.122 52.7186C248.87 49.7392 249.99 47.1382 251.484 44.7214L251.693 44.3841L251.412 44.1042L248.181 40.8865L248.167 40.873L248.152 40.8606C247.629 40.4137 247.383 39.7262 247.424 38.9724C247.465 38.2168 247.796 37.4355 248.371 36.8627L250.842 34.4023L250.842 34.402C251.51 33.7357 252.335 33.4127 253.149 33.4127C253.748 33.4127 254.387 33.7153 254.887 34.2126L258.118 37.4303L258.412 37.7235L258.755 37.4877C261.169 35.8234 263.765 34.716 266.735 34.1616L267.143 34.0854V33.6701V29.1274C267.143 27.5821 268.553 26.4097 270.254 26.4097H273.866C275.719 26.4097 276.977 27.7379 276.977 29.1274V33.8583V34.2491L277.356 34.3435C280.347 35.0885 282.961 36.204 285.388 37.692L285.724 37.8976L286.002 37.62L289.234 34.4023L289.259 34.3772L289.28 34.3487C289.721 33.7628 290.3 33.6024 290.972 33.6024C291.786 33.6024 292.611 33.9254 293.28 34.592L295.751 37.0524C296.923 38.2199 297.038 39.9811 295.94 41.0748L292.709 44.2925L292.428 44.5723L292.636 44.9097C294.143 47.3469 295.438 49.9364 295.992 52.8776ZM258.161 58.0852C258.161 65.7443 264.278 71.834 271.966 71.834C279.652 71.834 285.77 65.7444 285.77 58.0852C285.77 50.4261 279.652 44.3365 271.966 44.3365C264.278 44.3365 258.161 50.4261 258.161 58.0852Z" fill="#FFC300" stroke="black"/>
<path d="M270.853 63.6541C271.22 63.7274 271.591 63.7633 271.966 63.7633C272.34 63.7633 272.711 63.7274 273.079 63.6541C273.445 63.5808 273.802 63.4744 274.148 63.3307C274.493 63.1885 274.822 63.0131 275.134 62.8062L274.857 62.3896C274.857 62.3897 274.857 62.3898 274.857 62.3899M270.853 63.6541L274.857 62.3899M270.853 63.6541C270.485 63.5808 270.129 63.4744 269.784 63.3307L270.853 63.6541ZM274.857 62.3899C275.14 62.2012 275.403 61.9862 275.645 61.7462C275.887 61.5041 276.103 61.2435 276.291 60.9616C276.482 60.6775 276.642 60.3802 276.772 60.0668C276.902 59.7521 277.001 59.4285 277.068 59.0956C277.134 58.7599 277.168 58.4233 277.168 58.0853C277.168 57.7472 277.134 57.4106 277.068 57.0749C277.001 56.7421 276.902 56.4185 276.772 56.1037C276.642 55.7903 276.482 55.493 276.291 55.209C276.103 54.927 275.887 54.6664 275.645 54.4242C275.403 54.1843 275.14 53.9694 274.857 53.7806C274.572 53.5916 274.272 53.4317 273.957 53.302L273.956 53.3016C273.642 53.1711 273.317 53.074 272.981 53.0068C272.646 52.94 272.308 52.9072 271.966 52.9072C271.623 52.9072 271.285 52.9401 270.951 53.0067L270.951 53.0068C270.613 53.074 270.289 53.1711 269.976 53.3013L269.974 53.3023L269.974 53.3023C269.658 53.4319 269.359 53.5917 269.076 53.7803L269.075 53.7809C268.791 53.9695 268.528 54.1842 268.287 54.4237C268.045 54.666 267.83 54.9268 267.641 55.209L267.64 55.2103L267.64 55.2103C267.45 55.4924 267.291 55.7892 267.159 56.1045C267.028 56.4194 266.93 56.7425 266.864 57.0742L266.864 57.0757C266.797 57.4093 266.764 57.7456 266.764 58.0853C266.764 58.4249 266.797 58.7613 266.864 59.0948L266.864 59.0963C266.93 59.428 267.028 59.7511 267.159 60.066C267.291 60.3813 267.45 60.6782 267.64 60.9602L267.641 60.9616C267.83 61.2437 268.045 61.5045 268.287 61.7468C268.528 61.9864 268.791 62.201 269.075 62.3896L269.076 62.3902C269.359 62.5789 269.658 62.7386 269.974 62.8682L269.976 62.8692C270.289 62.9994 270.613 63.0965 270.951 63.1637L270.951 63.1638C271.285 63.2305 271.623 63.2633 271.966 63.2633C272.307 63.2633 272.645 63.2305 272.981 63.1638C273.317 63.0966 273.642 62.9994 273.956 62.8689L273.957 62.8685C274.272 62.7388 274.572 62.5789 274.857 62.3899Z" fill="#FFC300" stroke="black"/>
<path d="M295.992 230.601L296.069 231.009H296.483H301.045C302.429 231.009 303.776 232.435 303.776 234.104V237.7C303.776 239.541 302.445 240.797 301.045 240.797H296.483H296.093L295.998 241.175C295.25 244.153 294.13 246.756 292.636 249.173L292.428 249.51L292.709 249.79L295.94 253.008L295.954 253.021L295.968 253.034C296.491 253.48 296.738 254.167 296.697 254.921C296.656 255.676 296.326 256.457 295.751 257.03L293.28 259.49C292.611 260.157 291.786 260.48 290.972 260.48C290.373 260.48 289.733 260.177 289.234 259.68L286.002 256.462L285.708 256.169L285.366 256.405C282.951 258.069 280.355 259.177 277.385 259.732L276.977 259.809V260.224V264.765C276.977 266.14 275.548 267.483 273.866 267.483H270.254C268.402 267.483 267.143 266.156 267.143 264.765V260.224V259.833L266.764 259.739C263.773 258.994 261.159 257.878 258.732 256.39L258.397 256.185L258.118 256.462L254.887 259.68L254.862 259.705L254.84 259.734C254.399 260.32 253.82 260.48 253.149 260.48C252.335 260.48 251.51 260.157 250.842 259.491L250.842 259.49L248.371 257.03C247.198 255.862 247.083 254.1 248.18 253.008L248.181 253.008L251.412 249.79L251.693 249.51L251.484 249.173C249.977 246.735 248.682 244.146 248.129 241.205L248.052 240.797H247.637H243.075C241.691 240.797 240.344 239.369 240.344 237.7V234.104C240.344 232.263 241.675 231.009 243.075 231.009H247.637H248.027L248.122 230.63C248.87 227.651 249.99 225.05 251.484 222.633L251.693 222.296L251.412 222.016L248.181 218.798L248.167 218.785L248.152 218.773C247.629 218.326 247.383 217.638 247.424 216.884C247.465 216.129 247.796 215.347 248.371 214.775L250.842 212.314L250.842 212.314C251.51 211.648 252.335 211.325 253.149 211.325C253.748 211.325 254.387 211.627 254.887 212.125L258.118 215.342L258.412 215.635L258.755 215.4C261.169 213.735 263.765 212.628 266.735 212.073L267.143 211.997V211.582V207.039C267.143 205.494 268.553 204.322 270.254 204.322H273.866C275.719 204.322 276.977 205.65 276.977 207.039V211.582V211.973L277.356 212.067C280.347 212.811 282.961 213.928 285.388 215.414L285.724 215.62L286.002 215.342L289.234 212.125L289.259 212.1L289.28 212.071C289.721 211.486 290.301 211.325 290.972 211.325C291.786 211.325 292.611 211.648 293.28 212.314L295.751 214.775C296.923 215.942 297.038 217.705 295.94 218.798L292.709 222.016L292.428 222.296L292.636 222.633C294.143 225.071 295.438 227.659 295.992 230.601ZM258.161 235.997C258.161 243.656 264.278 249.746 271.966 249.746C279.652 249.746 285.77 243.656 285.77 235.997C285.77 228.338 279.652 222.248 271.966 222.248C264.278 222.248 258.161 228.338 258.161 235.997Z" fill="#FFC300" stroke="black"/>
<path d="M270.951 241.076L270.951 241.076C271.285 241.142 271.623 241.175 271.966 241.175C272.307 241.175 272.645 241.142 272.981 241.076L270.951 241.076ZM270.951 241.076C270.615 241.009 270.289 240.91 269.975 240.78L269.974 240.78M270.951 241.076L269.974 240.78M269.974 240.78C269.658 240.65 269.359 240.491 269.076 240.302L269.075 240.301M269.974 240.78L269.075 240.301M269.075 240.301C268.791 240.113 268.528 239.898 268.287 239.659C268.045 239.416 267.83 239.156 267.641 238.873L267.64 238.872M269.075 240.301L267.64 238.872M267.64 238.872C267.45 238.59 267.291 238.293 267.159 237.978C267.028 237.663 266.93 237.34 266.864 237.008L266.864 237.007M267.64 238.872L266.864 237.007M266.864 237.007C266.797 236.673 266.764 236.337 266.764 235.997C266.764 235.657 266.797 235.321 266.864 234.988L266.864 234.986M266.864 237.007L266.864 234.986M266.864 234.986C266.93 234.654 267.028 234.331 267.159 234.016C267.291 233.701 267.45 233.404 267.64 233.122L267.64 233.122M266.864 234.986L267.64 233.122M267.64 233.122L267.641 233.121M267.64 233.122L267.641 233.121M267.641 233.121C267.83 232.839 268.045 232.578 268.287 232.336C268.528 232.096 268.791 231.881 269.075 231.693L269.076 231.692M267.641 233.121L269.076 231.692M269.076 231.692C269.359 231.504 269.658 231.344 269.974 231.214L269.974 231.214M269.076 231.692L269.974 231.214M269.974 231.214L269.976 231.213M269.974 231.214L269.976 231.213M269.976 231.213C270.289 231.083 270.613 230.986 270.951 230.919L270.951 230.919M269.976 231.213L270.951 230.919M270.951 230.919C271.285 230.852 271.623 230.819 271.966 230.819C272.307 230.819 272.646 230.852 272.981 230.919C273.317 230.986 273.642 231.083 273.956 231.213L273.957 231.214M270.951 230.919L273.957 231.214M273.957 231.214C274.272 231.344 274.572 231.503 274.857 231.692C275.14 231.881 275.403 232.096 275.645 232.336C275.887 232.578 276.103 232.839 276.291 233.121C276.482 233.405 276.642 233.702 276.772 234.016C276.902 234.33 277.001 234.654 277.068 234.987C277.134 235.322 277.168 235.659 277.168 235.997C277.168 236.335 277.134 236.672 277.068 237.007M273.957 231.214L277.068 237.007M277.068 237.007C277.001 237.34 276.902 237.664 276.772 237.979C276.642 238.292 276.482 238.589 276.291 238.873C276.103 239.155 275.887 239.416 275.645 239.658C275.403 239.898 275.14 240.113 274.857 240.302C274.572 240.491 274.272 240.65 273.958 240.78L277.068 237.007ZM273.957 240.78C273.641 240.91 273.316 241.009 272.981 241.076L273.957 240.78Z" fill="#FFC300" stroke="black"/>
<path d="M69.2799 63.2926L69.2031 62.8853H68.7886H64.2283C62.8094 62.8853 61.4971 61.6113 61.4971 59.9779V56.3822C61.4971 54.5409 62.8267 53.2851 64.2283 53.2851H68.7886H69.1785L69.2735 52.9069C70.0215 49.9289 71.1415 47.3264 72.6356 44.9097L72.8441 44.5723L72.5631 44.2925L69.3319 41.0748C68.2457 39.9932 68.333 38.2282 69.5345 36.8506L71.9931 34.4023C72.6626 33.7356 73.4864 33.4127 74.3014 33.4127C75.1026 33.4127 75.738 33.7262 76.2236 34.2075L79.2589 37.4195L79.5532 37.7309L79.906 37.4877C82.3206 35.8234 84.9167 34.716 87.8865 34.1616L88.2948 34.0854V33.6701V29.1274C88.2948 27.5823 89.7051 26.4097 91.407 26.4097H95.0177C96.8689 26.4097 98.1464 27.5539 98.3189 29.1533V33.6701V34.061L98.6983 34.1553C101.689 34.8988 104.303 36.0157 106.73 37.5024L107.066 37.7078L107.344 37.4303L110.575 34.2126L110.601 34.1877L110.622 34.1594C111.063 33.5742 111.643 33.4127 112.314 33.4127C112.959 33.4127 113.904 33.744 114.356 34.4956L114.388 34.5485L114.432 34.592L116.902 37.0524C118.075 38.2202 118.191 39.9814 117.093 41.0748L113.862 44.2925L113.581 44.5722L113.789 44.9095C115.294 47.3468 116.59 49.9364 117.143 52.8776L117.22 53.2851H117.635H122.196C123.58 53.2851 124.928 54.7129 124.928 56.3822V59.9779C124.928 61.8188 123.597 63.0736 122.196 63.0736H117.635H117.245L117.15 63.452C116.403 66.4298 115.282 69.0322 113.789 71.4492L113.581 71.7865L113.862 72.0662L117.093 75.2839L117.106 75.2975L117.121 75.31C117.644 75.7561 117.89 76.4434 117.849 77.1976C117.808 77.9534 117.477 78.735 116.902 79.3078L114.432 81.7681C113.762 82.4348 112.938 82.7577 112.123 82.7577C111.524 82.7577 110.884 82.4551 110.385 81.9578L107.154 78.7401L106.859 78.4469L106.517 78.6827C104.103 80.3471 101.508 81.4544 98.5367 82.0088L98.1284 82.085V82.5004V87.0431C98.1284 88.4164 96.6989 89.7608 95.0177 89.7608H91.407C89.5529 89.7608 88.2948 88.4324 88.2948 87.0431V82.5004V82.1096L87.9156 82.0152C84.9245 81.2702 82.3106 80.1547 79.8834 78.668L79.5481 78.4626L79.2695 78.7401L76.0383 81.9578L76.0132 81.9828L75.9919 82.011C75.5504 82.5964 74.972 82.7577 74.3014 82.7577C73.6728 82.7577 72.6841 82.434 72.0301 81.6196L72.0127 81.598L71.9931 81.5784L69.5224 79.1181C68.3495 77.9501 68.2341 76.1877 69.3317 75.0959L69.3319 75.0957L72.5631 71.878L72.8441 71.5981L72.6356 71.2607C71.1289 68.8237 69.8351 66.2341 69.2799 63.2926ZM107.112 58.0852C107.112 50.4261 100.994 44.3365 93.3076 44.3365C85.62 44.3365 79.5033 50.4261 79.5033 58.0852C79.5033 65.7443 85.62 71.834 93.3076 71.834C100.994 71.834 107.112 65.7444 107.112 58.0852Z" fill="#FFC300" stroke="black"/>
<path d="M95.2992 62.8685L95.2982 62.8689C94.9837 62.9994 94.6587 63.0966 94.3224 63.1638C93.9872 63.2305 93.6492 63.2633 93.3078 63.2633C92.9647 63.2633 92.6267 63.2305 92.2932 63.1638C91.9565 63.0965 91.6304 62.9993 91.3181 62.8692L91.3158 62.8682C91.0002 62.7386 90.7004 62.5789 90.4176 62.3902L90.4167 62.3896C90.1325 62.2009 89.8695 61.9862 89.6289 61.7466C89.387 61.5044 89.1714 61.2437 88.9826 60.9616L88.9817 60.9602C88.7914 60.6779 88.6325 60.3813 88.5023 60.0668L88.5016 60.0652C88.3702 59.7511 88.2718 59.4283 88.2061 59.0963L88.2058 59.0948C88.1389 58.7613 88.106 58.4249 88.106 58.0853C88.106 57.7456 88.1389 57.4093 88.2058 57.0757L88.2061 57.0742C88.2718 56.7423 88.3702 56.4195 88.5016 56.1053L88.5016 56.1053L88.5023 56.1037C88.6325 55.7893 88.7914 55.4926 88.9817 55.2103L88.9817 55.2103L88.9826 55.209C89.1715 54.9268 89.3871 54.666 89.629 54.4237C89.8696 54.1842 90.1325 53.9695 90.4167 53.7809L90.4176 53.7803C90.7004 53.5917 91.0002 53.4319 91.3158 53.3023L91.3158 53.3023L91.3181 53.3013C91.6304 53.1712 91.9565 53.0741 92.2932 53.0067C92.6267 52.9401 92.9647 52.9072 93.3078 52.9072C93.6493 52.9072 93.9874 52.94 94.3227 53.0068C94.6588 53.074 94.9837 53.1711 95.2982 53.3016L95.2992 53.302C95.6137 53.4318 95.914 53.5917 96.199 53.7809C96.4822 53.9689 96.744 54.1835 96.9871 54.4242C97.2288 54.6663 97.4443 54.927 97.6331 55.209C97.8232 55.493 97.9835 55.7903 98.1134 56.1037C98.2437 56.4185 98.3424 56.7421 98.4096 57.075C98.4757 57.4106 98.5097 57.7472 98.5097 58.0853C98.5097 58.4233 98.4757 58.7599 98.4096 59.0956C98.3424 59.4285 98.2437 59.7521 98.1134 60.0668C97.9835 60.3802 97.8232 60.6775 97.6331 60.9616C97.4443 61.2435 97.2288 61.5042 96.9871 61.7463C96.744 61.987 96.4822 62.2016 96.199 62.3896C95.914 62.5788 95.6137 62.7388 95.2992 62.8685Z" fill="#FFC300" stroke="black"/>
<path d="M69.2799 241.204L69.2031 240.797H68.7886H64.2283C62.8267 240.797 61.4971 239.541 61.4971 237.7V234.104C61.4971 232.263 62.8264 231.009 64.2283 231.009H68.7886H69.1786L69.2735 230.63C70.0215 227.651 71.1414 225.05 72.6356 222.633L72.8441 222.296L72.5631 222.016L69.3319 218.798L69.3184 218.785L69.3039 218.773C68.7807 218.326 68.5347 217.638 68.5757 216.884C68.6168 216.129 68.9472 215.347 69.5224 214.775L71.9931 212.314C72.6626 211.647 73.4864 211.325 74.3014 211.325C74.9001 211.325 75.5386 211.627 76.0383 212.125L79.2695 215.342L79.5639 215.635L79.906 215.4C82.3206 213.735 84.9167 212.628 87.8865 212.073L88.2948 211.997V211.582V207.039C88.2948 205.494 89.7051 204.322 91.407 204.322H95.0177C96.8715 204.322 98.1284 205.65 98.1284 207.039V211.582V211.973L98.5079 212.067C101.5 212.811 104.112 213.928 106.54 215.414L106.875 215.62L107.154 215.342L110.385 212.125L110.41 212.1L110.431 212.071C110.873 211.486 111.452 211.325 112.123 211.325C112.938 211.325 113.762 211.647 114.432 212.314L116.902 214.775C118.075 215.942 118.191 217.705 117.093 218.798L113.862 222.016L113.581 222.296L113.789 222.633C115.294 225.07 116.59 227.659 117.143 230.601L117.22 231.009H117.635H122.196C123.581 231.009 124.928 232.435 124.928 234.104V237.7C124.928 239.541 123.597 240.797 122.196 240.797H117.635H117.245L117.15 241.176C116.403 244.153 115.282 246.756 113.789 249.173L113.581 249.51L113.862 249.79L117.093 253.008L117.106 253.021L117.121 253.034C117.644 253.48 117.89 254.167 117.849 254.92C117.808 255.676 117.478 256.457 116.902 257.03L114.432 259.49C113.762 260.157 112.938 260.48 112.123 260.48C111.524 260.48 110.884 260.177 110.385 259.68L107.154 256.462L106.859 256.169L106.517 256.405C104.103 258.069 101.508 259.177 98.5365 259.732L98.1284 259.809V260.224V264.765C98.1284 266.14 96.699 267.483 95.0177 267.483H91.407C89.5528 267.483 88.2948 266.156 88.2948 264.765V260.224V259.833L87.9156 259.739C84.9245 258.994 82.3107 257.878 79.8836 256.39L79.5482 256.185L79.2695 256.462L76.0383 259.68L76.013 259.705L75.9916 259.734C75.5504 260.32 74.9726 260.48 74.3014 260.48C73.4864 260.48 72.6626 260.157 71.9931 259.49L69.5224 257.03C68.3495 255.862 68.2341 254.1 69.3317 253.008L69.3319 253.008L72.5631 249.79L72.8441 249.51L72.6356 249.173C71.1289 246.736 69.8351 244.146 69.2799 241.204ZM107.112 235.997C107.112 228.338 100.994 222.248 93.3076 222.248C85.62 222.248 79.5033 228.338 79.5033 235.997C79.5033 243.656 85.62 249.746 93.3076 249.746C100.994 249.746 107.112 243.656 107.112 235.997Z" fill="#FFC300" stroke="black"/>
<path d="M88.0403 238.17C88.1832 238.515 88.3578 238.841 88.5671 239.152C88.7749 239.462 89.0116 239.748 89.2757 240.012L89.6294 239.659C89.6293 239.659 89.6291 239.659 89.6289 239.659M88.0403 238.17L94.3224 241.076C93.9872 241.142 93.6492 241.175 93.3078 241.175C92.9647 241.175 92.6267 241.142 92.2932 241.076C91.9577 241.009 91.6309 240.91 91.3164 240.78L91.3158 240.78C91.0002 240.65 90.7004 240.491 90.4176 240.302L90.4167 240.301C90.1325 240.113 89.8695 239.898 89.6289 239.659M88.0403 238.17C87.896 237.825 87.7878 237.47 87.7156 237.105M88.0403 238.17L87.7156 237.105M89.6289 239.659C89.387 239.416 89.1714 239.156 88.9826 238.873L88.9817 238.872C88.7914 238.59 88.6325 238.293 88.5023 237.979L88.5016 237.977C88.3702 237.663 88.2718 237.34 88.2061 237.008L88.2058 237.007C88.1389 236.673 88.106 236.337 88.106 235.997C88.106 235.657 88.1389 235.321 88.2058 234.988L88.2061 234.986C88.2718 234.654 88.3702 234.331 88.5016 234.017L88.5016 234.017L88.5023 234.016C88.6325 233.701 88.7914 233.404 88.9817 233.122L88.9817 233.122L88.9826 233.121C89.1715 232.839 89.3871 232.578 89.629 232.336M89.6289 239.659L89.629 232.336M89.629 232.336C89.8696 232.096 90.1325 231.881 90.4167 231.693L90.4176 231.692C90.7004 231.504 91.0002 231.344 91.3158 231.214L91.3158 231.214L91.3181 231.213C91.6304 231.083 91.9565 230.986 92.2932 230.919C92.6267 230.852 92.9647 230.819 93.3078 230.819C93.6492 230.819 93.9872 230.852 94.3224 230.919L89.629 232.336ZM87.7156 237.105C87.642 236.739 87.606 236.369 87.606 235.997C87.606 235.625 87.642 235.256 87.7156 234.889M87.7156 237.105V234.889M87.7156 234.889C87.7878 234.524 87.896 234.169 88.0403 233.824L87.7156 234.889ZM95.2992 231.214L95.2982 231.213C94.9837 231.083 94.6588 230.986 94.3226 230.919L95.2992 231.214ZM95.2992 231.214C95.6137 231.344 95.914 231.504 96.199 231.693C96.4822 231.881 96.744 232.095 96.9872 232.336C97.2288 232.578 97.4443 232.839 97.6331 233.121C97.8232 233.405 97.9835 233.702 98.1134 234.016C98.2437 234.33 98.3424 234.654 98.4096 234.987C98.4757 235.322 98.5097 235.659 98.5097 235.997C98.5097 236.335 98.4757 236.672 98.4096 237.007M95.2992 231.214L98.4096 237.007M98.4096 237.007C98.3424 237.34 98.2437 237.664 98.1134 237.979C97.9835 238.292 97.8232 238.589 97.6331 238.873C97.4443 239.155 97.2288 239.416 96.9871 239.658C96.744 239.899 96.4822 240.113 96.199 240.301C95.9141 240.491 95.614 240.65 95.2996 240.78C94.9831 240.91 94.6576 241.009 94.3228 241.076L98.4096 237.007Z" fill="#FFC300" stroke="black"/>
<path d="M119.992 149.806L120.417 149.741V149.312V141.741C120.417 108.529 148.308 81.2974 182.637 81.2974C216.963 81.2974 244.856 108.527 244.667 142.118V142.12V149.501V149.932L245.093 149.996C252.468 151.097 257.971 157.147 257.971 164.453C257.971 171.76 252.278 177.993 244.915 178.91L244.536 178.957L244.481 179.335C243.943 183.088 241.076 185.946 237.304 186.482L236.926 186.536L236.878 186.914C235.755 195.676 229.96 208.13 214.45 211.852L214.149 211.924L214.079 212.225C212.991 216.924 208.628 220.545 203.544 220.545C197.546 220.545 192.64 215.657 192.64 209.689C192.64 203.722 197.546 198.833 203.544 198.833C207.901 198.833 211.537 201.36 213.361 204.991L213.548 205.365L213.948 205.247C225.796 201.766 229.297 192.462 230.264 187.065L230.369 186.477H229.771H224.26C219.403 186.477 215.448 182.534 215.448 177.702V150.826C215.448 145.994 219.402 142.053 224.26 142.053H236.043C236.626 142.053 237.116 142.057 237.598 142.216L238.255 142.433V141.741C238.255 111.924 213.307 87.8681 182.637 87.8681C151.967 87.8681 127.019 111.924 127.019 141.741V142.433L127.676 142.216C128.158 142.057 128.648 142.053 129.229 142.053H141.012C145.87 142.053 149.827 145.994 149.827 150.826V177.702C149.827 182.534 145.87 186.477 141.012 186.477H129.229C124.922 186.477 121.319 183.256 120.598 179.131L120.535 178.766L120.167 178.721C112.8 177.803 107.112 171.756 107.112 164.265C107.112 156.964 112.8 150.909 119.992 149.806ZM129.229 148.624C128.006 148.624 127.019 149.601 127.019 150.826V177.702C127.019 178.927 128.005 179.906 129.229 179.906H141.012C142.238 179.906 143.224 178.927 143.224 177.702V150.826C143.224 149.601 142.237 148.624 141.012 148.624H129.229ZM236.043 179.906C237.269 179.906 238.255 178.927 238.255 177.702V150.826C238.255 149.601 237.268 148.624 236.043 148.624H224.26C223.037 148.624 222.05 149.601 222.05 150.826V177.702C222.05 178.927 223.036 179.906 224.26 179.906H236.043Z" fill="#FFC300" stroke="black"/>
</svg>
