<svg width="120" height="120" viewBox="0 0 120 120" fill="none" xmlns="http://www.w3.org/2000/svg">
<path d="M21.7827 58.9895C20.3555 61.1116 18.391 62.7176 16.138 63.6044C13.8849 64.4912 11.4446 64.6189 9.12589 63.9713C6.80718 63.3237 4.71436 61.9299 3.11233 59.9664C1.51031 58.0028 0.471111 55.5579 0.126291 52.9409C-0.218529 50.324 0.14653 47.6528 1.17526 45.2654C2.20398 42.878 3.85012 40.8818 5.90531 39.5294C7.96049 38.1771 10.3323 37.5294 12.7205 37.6684C15.1087 37.8074 17.406 38.7267 19.3214 40.3102C21.8876 42.4265 23.5884 45.5833 24.05 49.0863C24.5116 52.5892 23.696 56.1514 21.7827 58.9895Z" fill="#E6E6E6"/>
<path d="M19.4808 57.0846C18.3943 58.7022 16.8983 59.927 15.1821 60.6041C13.4659 61.2811 11.6066 61.3799 9.8396 60.888C8.07259 60.3961 6.47726 59.3355 5.25553 57.8406C4.0338 56.3456 3.2406 54.4835 2.9763 52.4899C2.712 50.4962 2.9885 48.4607 3.77079 46.6409C4.55308 44.8211 5.806 43.2988 7.37099 42.2667C8.93597 41.2346 10.7427 40.7392 12.5624 40.843C14.3821 40.9468 16.1331 41.6453 17.5937 42.85C18.563 43.6475 19.3807 44.6484 20.0001 45.7954C20.6196 46.9424 21.0286 48.2132 21.2038 49.535C21.3791 50.8569 21.3171 52.204 21.0214 53.4994C20.7258 54.7947 20.2023 56.013 19.4808 57.0846Z" fill="#F5F5F5"/>
<path d="M19.6504 56.8282C19.6045 56.7924 19.8148 56.4108 20.1194 55.6864C20.5477 54.6739 20.8305 53.5937 20.9578 52.4848C21.1463 50.8497 20.9695 49.1885 20.4429 47.6465C20.2918 47.2043 20.1116 46.7748 19.9038 46.3616C19.6926 45.9316 19.4519 45.52 19.184 45.1305C18.9056 44.7252 18.5991 44.3445 18.2674 43.9917C17.5841 43.2636 16.8006 42.6598 15.9463 42.203C15.1308 41.7637 14.2602 41.4622 13.3637 41.3087C12.9418 41.2362 12.5156 41.1983 12.0886 41.1954C11.2967 41.1842 10.5068 41.2843 9.73782 41.4936C9.06788 41.6852 8.41885 41.9571 7.80222 42.3044C6.90613 42.8184 6.08763 43.4832 5.37598 44.2749C4.86646 44.8383 4.61306 45.1901 4.56723 45.1692C4.5214 45.1483 4.71011 44.731 5.17109 44.0871C5.83629 43.1784 6.64909 42.4151 7.56768 41.8364C8.94495 40.9615 10.503 40.4943 12.0913 40.48C13.0312 40.4686 13.9674 40.6144 14.868 40.9122C15.344 41.071 15.8082 41.2704 16.2563 41.5085C16.7162 41.7568 17.1587 42.0427 17.58 42.364C17.9977 42.6913 18.3924 43.0531 18.7607 43.4462C19.1172 43.83 19.4453 44.2447 19.742 44.6863C20.3028 45.5188 20.7463 46.4405 21.0576 47.4199C21.5917 49.074 21.7292 50.8528 21.4566 52.5831C21.2831 53.7357 20.9175 54.8426 20.3782 55.8474C19.9739 56.5301 19.6854 56.855 19.6504 56.8282Z" fill="black"/>
<path d="M9.64869 56.545L8.70785 57.9789L7.54865 57.0547L8.46522 55.6596C7.36802 54.6609 6.52693 53.3821 6.25195 52.3178L7.91528 51.2655C8.24312 52.3134 8.81276 53.2486 9.56782 53.9783L10.9723 51.8379C9.91019 50.4606 8.78333 48.8329 9.98567 46.9996C10.878 45.6402 12.5359 45.1901 14.52 46.4272L15.4528 45.0052L16.612 45.9353L15.6954 47.3305C16.4925 48.0511 17.1236 48.9706 17.5367 50.0134L15.9192 51.1254C15.6005 50.3372 15.1422 49.6276 14.5713 49.0386L13.1425 51.2178C14.2208 52.5831 15.3153 54.1989 14.1292 55.9875C13.2692 57.3141 11.6301 57.7612 9.64869 56.545ZM12.207 49.9479L13.4013 48.1264C12.6869 47.7866 12.1989 47.9654 11.9213 48.3888C11.6436 48.8121 11.8134 49.3576 12.207 49.9479ZM12.1747 54.6371C12.4685 54.1869 12.2933 53.6742 11.9213 53.081L10.7594 54.8517C11.4333 55.1767 11.9051 55.0455 12.1747 54.6371Z" fill="black"/>
<path d="M94.3515 96.9474C93.1131 98.7887 91.4084 100.182 89.4534 100.952C87.4983 101.721 85.3807 101.832 83.3687 101.27C81.3567 100.708 79.5407 99.4985 78.1506 97.7947C76.7605 96.0908 75.8589 93.9692 75.5597 91.6984C75.2606 89.4275 75.5775 87.1096 76.4702 85.0381C77.3629 82.9665 78.7914 81.2344 80.5748 80.061C82.3583 78.8876 84.4164 78.3257 86.4887 78.4465C88.5611 78.5672 90.5544 79.3652 92.2164 80.7393C94.4427 82.5759 95.9182 85.3151 96.3186 88.3545C96.719 91.3939 96.0114 94.4847 94.3515 96.9474Z" fill="#E6E6E6"/>
<path d="M92.3545 95.2957C91.4096 96.6976 90.1099 97.7579 88.6198 98.3425C87.1297 98.9271 85.5163 99.0098 83.9837 98.58C82.4511 98.1502 81.0683 97.2273 80.0103 95.928C78.9522 94.6288 78.2665 93.0117 78.04 91.2813C77.8134 89.551 78.0562 87.7852 78.7375 86.2075C79.4189 84.6298 80.5082 83.3111 81.8676 82.4183C83.227 81.5254 84.7953 81.0986 86.3742 81.1919C87.953 81.2852 89.4714 81.8943 90.737 82.9422C92.4328 84.3433 93.5559 86.4319 93.8592 88.7486C94.1626 91.0653 93.6213 93.4203 92.3545 95.2957Z" fill="#F5F5F5"/>
<path d="M92.5023 95.0723C92.4618 95.0395 92.6451 94.7086 92.9066 94.0796C93.2784 93.2009 93.524 92.2636 93.6345 91.3012C93.7083 90.6424 93.7156 89.9765 93.6561 89.3158C93.587 88.5592 93.4293 87.8156 93.187 87.1039C93.0582 86.7198 92.9032 86.3471 92.7233 85.989C92.5395 85.6137 92.3295 85.2549 92.0952 84.9158C91.8529 84.5643 91.5871 84.2335 91.2999 83.9261C91.0017 83.6124 90.6837 83.3225 90.3483 83.0586C90.0099 82.7999 89.6549 82.5687 89.2861 82.367C88.5786 81.9868 87.8235 81.7265 87.0459 81.5949C86.6793 81.5316 86.309 81.4987 85.9379 81.4965C85.251 81.4895 84.5661 81.5797 83.8999 81.7648C83.3184 81.9317 82.7552 82.1687 82.2204 82.4713C81.4411 82.9165 80.729 83.4928 80.1096 84.1795C79.6674 84.6684 79.4464 84.9724 79.4086 84.9396C79.3709 84.9068 79.5327 84.561 79.9316 84.0036C80.5096 83.2153 81.2154 82.5531 82.0128 82.051C82.5653 81.7 83.1535 81.4228 83.7651 81.2252C84.4717 81 85.2026 80.8817 85.9379 80.8735C86.3356 80.8676 86.733 80.8955 87.1268 80.9569C87.5395 81.0205 87.9469 81.1201 88.3453 81.255C88.7584 81.3923 89.1613 81.5647 89.5503 81.7708C90.3512 82.1993 91.0847 82.7669 91.7232 83.4521C92.0315 83.7863 92.3163 84.146 92.5751 84.5282C92.8238 84.8967 93.0456 85.2864 93.2382 85.6938C93.4254 86.0772 93.5858 86.4759 93.7181 86.8863C93.9625 87.6555 94.1121 88.4577 94.1629 89.2711C94.2054 89.9746 94.172 90.6811 94.0632 91.3758C93.9095 92.3766 93.5886 93.3369 93.1169 94.2078C92.7799 94.8129 92.5292 95.0932 92.5023 95.0723Z" fill="black"/>
<path d="M83.8249 94.8248L83.0162 96.0709L82.008 95.263L82.8032 94.0497C81.8516 93.1852 81.1237 92.0733 80.8838 91.1521L82.3261 90.2399C82.6122 91.1487 83.1063 91.9601 83.7602 92.595L84.9787 90.7348C84.0595 89.5423 83.0917 88.1293 84.1242 86.5374C84.8979 85.345 86.3374 84.9664 88.0574 86.0426L88.8661 84.8054L89.8717 85.6133L89.0764 86.8266C89.768 87.4474 90.316 88.2414 90.675 89.1429L89.2732 90.1058C89.0007 89.4217 88.6065 88.8053 88.114 88.2933L86.8739 90.1863C87.8013 91.3787 88.761 92.7649 87.7312 94.3329C86.9629 95.4926 85.5422 95.8801 83.8249 94.8248ZM86.0436 89.1011L87.0788 87.5212C86.4588 87.2231 86.0355 87.3811 85.7929 87.7477C85.5503 88.1144 85.7012 88.5914 86.0436 89.1011ZM86.0139 93.1703C86.27 92.7798 86.1164 92.3356 85.7929 91.8199L84.7873 93.3551C85.3696 93.6383 85.7821 93.525 86.0139 93.1703Z" fill="black"/>
<path d="M30.9517 17.2694C30.7064 18.752 30.0688 20.1208 29.1196 21.2025C28.1704 22.2842 26.9523 23.0302 25.6195 23.346C24.2867 23.6618 22.8992 23.5332 21.6325 22.9765C20.3659 22.4198 19.277 21.4601 18.5039 20.2188C17.7307 18.9775 17.308 17.5104 17.2892 16.0033C17.2704 14.4962 17.6565 13.0168 18.3984 11.7524C19.1403 10.488 20.2048 9.4955 21.4571 8.90045C22.7094 8.30539 24.0932 8.13459 25.4334 8.40965C27.2275 8.77549 28.8168 9.91439 29.8517 11.5759C30.8865 13.2373 31.2822 15.2853 30.9517 17.2694Z" fill="#E6E6E6"/>
<path d="M29.3394 16.9384C29.1522 18.0683 28.6661 19.1113 27.9425 19.9354C27.219 20.7596 26.2906 21.3278 25.2749 21.5682C24.2592 21.8085 23.2018 21.7102 22.2366 21.2857C21.2714 20.8612 20.4418 20.1295 19.8529 19.1833C19.264 18.2372 18.9422 17.119 18.9282 15.9705C18.9143 14.822 19.2088 13.6947 19.7745 12.7314C20.3402 11.768 21.1517 11.012 22.1062 10.5589C23.0607 10.1059 24.1154 9.9762 25.1366 10.1863C25.8135 10.3244 26.4592 10.6086 27.0368 11.0227C27.6144 11.4367 28.1126 11.9726 28.5029 12.5996C28.8931 13.2266 29.1679 13.9325 29.3114 14.677C29.4549 15.4215 29.4644 16.1899 29.3394 16.9384Z" fill="#F5F5F5"/>
<path d="M29.3685 16.7596C29.3371 16.5228 29.3299 16.2828 29.347 16.0442C29.3343 15.4076 29.2324 14.7771 29.045 14.175C28.9158 13.7578 28.7449 13.3579 28.5355 12.9826C28.2966 12.5592 28.0084 12.1723 27.6783 11.8319C27.5009 11.6472 27.3117 11.4768 27.1121 11.3221C26.9048 11.161 26.6867 11.0175 26.4597 10.8929C26.2248 10.7637 25.9815 10.6541 25.7319 10.565C25.4741 10.4761 25.2111 10.4074 24.9447 10.3593C24.6768 10.3169 24.4066 10.295 24.1359 10.2937C23.8732 10.2963 23.611 10.3202 23.3515 10.3652C23.1012 10.409 22.8542 10.4738 22.6128 10.559C22.3808 10.6395 22.1546 10.7391 21.9361 10.8571C21.1685 11.2655 20.5037 11.8767 20.0005 12.6368C19.6536 13.1485 19.3808 13.7167 19.1918 14.3211C19.1426 14.5534 19.0712 14.7792 18.9788 14.9948C18.9516 14.7522 18.9727 14.506 19.0408 14.2734C19.1748 13.6234 19.417 13.0068 19.7552 12.455C20.2576 11.6233 20.947 10.9505 21.7555 10.5024C21.9892 10.3707 22.2316 10.2591 22.4807 10.1685C22.7394 10.0726 23.0044 9.99885 23.2733 9.94787C23.5532 9.89725 23.8361 9.86935 24.1198 9.8644C24.4111 9.86357 24.7022 9.88649 24.9905 9.93297C25.2782 9.98388 25.5621 10.0586 25.8397 10.1565C26.109 10.2548 26.3713 10.3754 26.6242 10.5173C26.8685 10.6533 27.1021 10.8119 27.3224 10.9912C27.5354 11.1586 27.7355 11.3451 27.9209 11.5487C28.2658 11.9215 28.5641 12.3436 28.8078 12.8037C29.0167 13.2056 29.1831 13.6328 29.3038 14.0767C29.4751 14.7152 29.5382 15.3832 29.4899 16.0471C29.4938 16.2913 29.4525 16.5338 29.3685 16.7596Z" fill="black"/>
<path d="M24.19 19.4008L24.0363 20.3995L23.2276 20.2474L23.3758 19.2756C22.6671 19.1153 22.0133 18.7383 21.4888 18.1875L22.098 17.1859C22.5052 17.6291 23.0097 17.9476 23.5619 18.11L23.791 16.6195C22.9364 16.2111 21.9902 15.6924 22.187 14.4194C22.3326 13.4774 23.0766 12.7858 24.3733 12.8663L24.5243 11.8766L25.333 12.0286L25.1821 13.0005C25.7521 13.1447 26.2832 13.4358 26.7321 13.8501L26.1606 14.8696C25.8196 14.5548 25.4256 14.3178 25.0014 14.172L24.7669 15.6864C25.6242 16.0859 26.5542 16.6016 26.3601 17.8536C26.2146 18.7867 25.4786 19.4724 24.19 19.4008ZM23.9932 15.3197L24.19 14.0558C23.7452 14.0826 23.5376 14.3091 23.4918 14.6043C23.4459 14.8994 23.6589 15.126 23.9932 15.3197ZM25.0473 17.7254C25.0958 17.4273 24.8882 17.2008 24.562 17.004L24.3733 18.2292C24.7912 18.2054 25.0041 18.0027 25.0473 17.7225V17.7254Z" fill="black"/>
<path d="M120 119.919C120 119.964 95.0663 120 64.3178 120C33.5692 120 8.63281 119.955 8.63281 119.919C8.63281 119.884 33.5584 119.842 64.3178 119.842C95.0771 119.842 120 119.878 120 119.919Z" fill="#212121"/>
<path d="M41.5479 26.0695C41.5479 26.0695 41.7825 12.7113 31.7891 5.92639H63.4623C63.4623 5.92639 72.5176 14.0409 72.5931 26.0695H41.5479Z" fill="#E6E6E6"/>
<path d="M61.047 10.7974C61.047 10.8421 57.4292 10.8778 52.9595 10.8778C48.4899 10.8778 44.8721 10.8421 44.8721 10.7974C44.8721 10.7526 48.4899 10.7198 52.9595 10.7198C57.4292 10.7198 61.047 10.7556 61.047 10.7974Z" fill="#455A64"/>
<path d="M64.504 13.2151C64.504 13.2569 59.7108 13.2926 53.7989 13.2926C47.8869 13.2926 43.0938 13.2569 43.0938 13.2151C43.0938 13.1734 47.8869 13.1346 53.7989 13.1346C59.7108 13.1346 64.504 13.1704 64.504 13.2151Z" fill="#212121"/>
<path d="M66.304 19.3264C66.304 19.3681 61.5109 19.4039 55.5989 19.4039C49.687 19.4039 44.8911 19.3681 44.8911 19.3264C44.8911 19.2847 49.6843 19.2489 55.5989 19.2489C61.5136 19.2489 66.304 19.2847 66.304 19.3264Z" fill="#212121"/>
<path d="M55.1173 15.9965C54.9728 16.0212 54.8267 16.0321 54.6805 16.0292L53.4836 16.0531C52.4727 16.068 51.0789 16.0769 49.5369 16.0769C47.9949 16.0769 46.6012 16.0769 45.5902 16.0531L44.3933 16.0292C44.2471 16.0321 44.101 16.0212 43.9565 15.9965C44.1012 15.974 44.2472 15.964 44.3933 15.9666L45.5902 15.9428C46.6012 15.9428 47.9949 15.9189 49.5369 15.9189C51.0789 15.9189 52.4727 15.9189 53.4836 15.9428L54.6805 15.9666C54.8266 15.964 54.9726 15.974 55.1173 15.9965Z" fill="#212121"/>
<path d="M64.5041 15.9965C64.3978 16.0211 64.2892 16.0321 64.1806 16.0292L63.2964 16.0531C62.5523 16.068 61.5198 16.0769 60.3822 16.0769C59.2445 16.0769 58.212 16.0769 57.468 16.0531L56.5838 16.0292C56.4751 16.0318 56.3666 16.0208 56.2603 15.9965C56.3669 15.9742 56.4753 15.9642 56.5838 15.9666L57.468 15.9428C58.212 15.9428 59.2445 15.9189 60.3822 15.9189C61.5198 15.9189 62.5388 15.9189 63.2964 15.9428L64.1806 15.9666C64.2891 15.964 64.3975 15.974 64.5041 15.9965Z" fill="#212121"/>
<path d="M57.1034 22.6024C56.958 22.627 56.811 22.638 56.6639 22.6352L55.4697 22.6591C54.4587 22.6591 53.0623 22.6829 51.523 22.6829C49.9837 22.6829 48.5845 22.6829 47.5736 22.6591L46.3794 22.6352C46.2323 22.638 46.0853 22.627 45.9399 22.6024C46.0855 22.58 46.2324 22.5701 46.3794 22.5726L47.5736 22.5488C48.5845 22.5488 49.981 22.5249 51.523 22.5249C53.065 22.5249 54.4587 22.5249 55.4697 22.5488L56.6639 22.5726C56.8109 22.5701 56.9578 22.58 57.1034 22.6024Z" fill="#212121"/>
<path d="M66.4907 22.6024C66.3843 22.6268 66.2758 22.6378 66.1672 22.6352L65.2829 22.6591C64.5362 22.6591 63.5064 22.6829 62.3688 22.6829C61.2311 22.6829 60.2121 22.6829 59.4519 22.6591L58.5676 22.6352C58.459 22.6378 58.3505 22.6268 58.2441 22.6024C58.3508 22.5802 58.4592 22.5702 58.5676 22.5726L59.4519 22.5488C60.1986 22.5488 61.2284 22.5249 62.3688 22.5249C63.5091 22.5249 64.5254 22.5249 65.2829 22.5488L66.1672 22.5726C66.2756 22.5702 66.3841 22.5802 66.4907 22.6024Z" fill="#212121"/>
<path d="M35.0729 25.6909H81.8023L84.3472 115.212C84.3645 115.826 84.2701 116.437 84.0696 117.009C83.8691 117.581 83.5666 118.103 83.18 118.543C82.7934 118.983 82.3307 119.333 81.8194 119.572C81.3081 119.81 80.7586 119.933 80.2037 119.931H31.6195C30.933 119.932 30.2728 119.64 29.7755 119.117C29.2782 118.593 28.9819 117.879 28.948 117.12L26.7023 66.5703C26.7023 66.5703 12.8431 61.0047 13.0777 44.0334C13.0777 44.0334 13.7085 25.6909 35.0729 25.6909Z" fill="#212121"/>
<path d="M37.6098 119.794L35.5718 25.6909H83.4981L84.3635 115.835C84.3787 116.367 84.2971 116.896 84.1235 117.391C83.9499 117.886 83.6878 118.338 83.353 118.719C83.0182 119.1 82.6174 119.403 82.1746 119.609C81.7317 119.816 81.2559 119.921 80.7754 119.92L37.6098 119.794Z" fill="#455A64"/>
<path d="M39.5317 31.1432L40.5022 74.959H79.5351L79.0094 31.1432H39.5317Z" fill="#212121"/>
<path d="M43.8507 36.8133C45.7567 37.3827 48.1641 37.1412 50.1212 37.0369C50.2642 37.0369 50.4014 36.974 50.5025 36.8622C50.6036 36.7504 50.6604 36.5988 50.6604 36.4406C50.6604 36.2825 50.6036 36.1309 50.5025 36.0191C50.4014 35.9072 50.2642 35.8444 50.1212 35.8444C48.1641 35.7371 45.754 35.4956 43.8507 36.068C43.7767 36.0923 43.7117 36.1425 43.6654 36.211C43.6192 36.2795 43.5942 36.3626 43.5942 36.4481C43.5942 36.5336 43.6192 36.6167 43.6654 36.6852C43.7117 36.7537 43.7767 36.8039 43.8507 36.8282V36.8133Z" fill="black"/>
<path d="M53.4529 36.7268C55.3238 37.2544 57.7419 37.159 59.6533 36.9563C59.7963 36.9563 59.9334 36.8935 60.0345 36.7817C60.1356 36.6699 60.1924 36.5182 60.1924 36.3601C60.1924 36.202 60.1356 36.0503 60.0345 35.9385C59.9334 35.8267 59.7963 35.7639 59.6533 35.7639C57.7419 35.5582 55.3238 35.4658 53.4529 35.9934C53.3814 36.0173 53.3187 36.066 53.2742 36.1323C53.2296 36.1986 53.2056 36.279 53.2056 36.3616C53.2056 36.4442 53.2296 36.5246 53.2742 36.5909C53.3187 36.6572 53.3814 36.7059 53.4529 36.7298V36.7268Z" fill="black"/>
<path d="M62.9263 36.5389C63.8671 36.8549 64.8835 36.8013 65.8594 36.8192C66.8559 36.8848 67.8555 36.8639 68.849 36.7566C69.337 36.6791 69.337 35.74 68.849 35.6655C67.8556 35.5557 66.8559 35.5337 65.8594 35.5999C64.8835 35.6178 63.8671 35.5641 62.9263 35.8801C62.8617 35.9007 62.8049 35.944 62.7644 36.0034C62.724 36.0628 62.7021 36.1352 62.7021 36.2095C62.7021 36.2839 62.724 36.3562 62.7644 36.4157C62.8049 36.4751 62.8617 36.5183 62.9263 36.5389Z" fill="black"/>
<path d="M71.7042 36.5986C72.4141 36.7129 73.1301 36.7737 73.8474 36.7804C74.5591 36.7983 75.3274 36.9265 76.0176 36.7089C76.1145 36.6765 76.1994 36.6104 76.2598 36.5205C76.3201 36.4306 76.3527 36.3216 76.3527 36.2096C76.3527 36.0976 76.3201 35.9886 76.2598 35.8987C76.1994 35.8087 76.1145 35.7427 76.0176 35.7102C75.3274 35.4926 74.5591 35.6208 73.8474 35.6387C73.13 35.6449 72.4139 35.7067 71.7042 35.8235C71.6293 35.849 71.5637 35.9004 71.5171 35.9701C71.4705 36.0399 71.4453 36.1243 71.4453 36.2111C71.4453 36.2978 71.4705 36.3822 71.5171 36.452C71.5637 36.5217 71.6293 36.5731 71.7042 36.5986Z" fill="black"/>
<path d="M51.8278 80.1699H40.5161V89.1101H51.8278V80.1699Z" fill="#FFC300"/>
<path d="M42.5622 80.1699H40.5161V89.1101H42.5622V80.1699Z" fill="#212121"/>
<path d="M65.6789 80.1699H54.3672V89.1101H65.6789V80.1699Z" fill="#FFC300"/>
<path d="M56.2971 80.1699H54.251V89.1101H56.2971V80.1699Z" fill="#212121"/>
<path d="M79.5329 80.1699H68.2212V89.1101H79.5329V80.1699Z" fill="#FFC300"/>
<path d="M69.9436 80.1699H67.8975V89.1101H69.9436V80.1699Z" fill="#212121"/>
<path d="M79.5329 92.0645H68.2212V101.005H79.5329V92.0645Z" fill="#FFC300"/>
<path d="M70.3293 92.0645H68.2212V101.005H70.3293V92.0645Z" fill="#212121"/>
<path d="M51.8278 92.0645H40.5161V101.005H51.8278V92.0645Z" fill="#FFC300"/>
<path d="M42.5622 92.0465H40.5161V100.987H42.5622V92.0465Z" fill="#212121"/>
<path d="M51.8278 103.84H40.5161V112.78H51.8278V103.84Z" fill="#FFC300"/>
<path opacity="0.3" d="M51.8278 103.84H40.5161V112.78H51.8278V103.84Z" fill="black"/>
<path d="M42.5622 103.84H40.5161V112.78H42.5622V103.84Z" fill="#212121"/>
<path d="M65.6164 92.0645H54.3047V101.005H65.6164V92.0645Z" fill="#FFC300"/>
<path d="M56.3508 92.0465H54.3047V100.987H56.3508V92.0465Z" fill="#212121"/>
<path d="M65.6789 103.84H54.3672V112.78H65.6789V103.84Z" fill="#FFC300"/>
<path opacity="0.3" d="M65.6789 103.84H54.3672V112.78H65.6789V103.84Z" fill="black"/>
<path d="M56.4133 103.84H54.3672V112.78H56.4133V103.84Z" fill="#212121"/>
<path d="M79.5329 103.84H68.2212V112.78H79.5329V103.84Z" fill="black"/>
<path d="M70.2673 103.84H68.2212V112.78H70.2673V103.84Z" fill="#212121"/>
<path d="M33.8766 119.932C33.6825 119.932 32.9735 98.8434 32.2914 72.8306C31.6094 46.8178 31.2131 25.7029 31.4072 25.6969C31.6013 25.6909 32.3103 46.779 32.9924 72.7978C33.6744 98.8166 34.0707 119.926 33.8766 119.932Z" fill="#455A64"/>
<path d="M79.4766 69.9688V71.5755L83.9516 72.8067L83.9274 70.3295L79.4766 69.9688Z" fill="#455A64"/>
<path d="M25.1537 66.7463C24.909 66.638 24.6458 66.5902 24.3827 66.6062C24.1179 66.6339 23.8581 66.7042 23.6117 66.8148L20.5492 67.9476L14.5645 70.1715L3.24202 74.345C2.79527 74.4862 2.41131 74.8046 2.16369 75.2393C1.91906 75.665 1.82768 76.1767 1.90759 76.6732C1.95734 76.9193 2.02219 77.1613 2.10168 77.3976L2.32005 78.119C2.46562 78.599 2.6085 79.073 2.75407 79.547C3.322 81.433 3.87554 83.2644 4.4147 85.0411C5.49303 88.5886 6.4851 91.8975 7.39898 94.9054C9.21597 100.936 10.6906 105.819 11.7123 109.194C12.2191 110.881 12.61 112.19 12.8796 113.069C13.009 113.513 13.1114 113.85 13.1788 114.08C13.2462 114.309 13.2759 114.425 13.2759 114.425C13.2759 114.425 13.3082 114.545 13.4134 114.753C13.5688 115.064 13.7934 115.326 14.0658 115.514C14.2865 115.665 14.533 115.764 14.79 115.805C15.047 115.846 15.3089 115.828 15.5592 115.752C16.1469 115.543 16.8209 115.281 17.5838 115.001L28.8416 110.803L16.8344 69.3368L22.8407 67.11L33.686 103.858L33.2115 91.0748C31.0279 83.8814 28.669 76.1038 26.2024 67.9864C26.1187 67.7083 25.9817 67.4535 25.8007 67.2395C25.6197 67.0254 25.399 66.8572 25.1537 66.7463ZM11.3133 85.6373L8.63367 76.2589L9.54216 75.9399L12.2218 85.3183L11.3133 85.6373ZM13.1734 80.4711L11.6099 75.0038L12.5184 74.6878L14.0819 80.1521L13.1734 80.4711ZM15.2708 87.4051L13.7099 81.9378L14.6184 81.6218L16.1793 87.0861L15.2708 87.4051ZM15.81 88.8718L16.7185 88.5528L21.0452 103.691L20.1368 104.007L15.81 88.8718ZM21.4712 108.678L20.5465 105.444L21.455 105.125L22.3797 108.362L21.4712 108.678ZM25.2103 106.961L24.3018 107.277L18.5947 87.3037L19.5032 86.9877L25.2103 106.961ZM19.0369 85.0769L18.1284 85.3928L14.8179 73.8174L15.7264 73.4984L19.0369 85.0769Z" fill="#FFC300"/>
<path opacity="0.3" d="M25.1537 66.7463C24.909 66.638 24.6458 66.5902 24.3827 66.6062C24.1179 66.6339 23.8581 66.7042 23.6117 66.8148L20.5492 67.9476L14.5645 70.1715L3.24202 74.345C2.79527 74.4862 2.41131 74.8046 2.16369 75.2393C1.91906 75.665 1.82768 76.1767 1.90759 76.6732C1.95734 76.9193 2.02219 77.1613 2.10168 77.3976L2.32005 78.119C2.46562 78.599 2.6085 79.073 2.75407 79.547C3.322 81.433 3.87554 83.2644 4.4147 85.0411C5.49303 88.5886 6.4851 91.8975 7.39898 94.9054C9.21597 100.936 10.6906 105.819 11.7123 109.194C12.2191 110.881 12.61 112.19 12.8796 113.069C13.009 113.513 13.1114 113.85 13.1788 114.08C13.2462 114.309 13.2759 114.425 13.2759 114.425C13.2759 114.425 13.3082 114.545 13.4134 114.753C13.5688 115.064 13.7934 115.326 14.0658 115.514C14.2865 115.665 14.533 115.764 14.79 115.805C15.047 115.846 15.3089 115.828 15.5592 115.752C16.1469 115.543 16.8209 115.281 17.5838 115.001L28.8416 110.803L16.8344 69.3368L22.8407 67.11L33.686 103.858L33.2115 91.0748C31.0279 83.8814 28.669 76.1038 26.2024 67.9864C26.1187 67.7083 25.9817 67.4535 25.8007 67.2395C25.6197 67.0254 25.399 66.8572 25.1537 66.7463ZM11.3133 85.6373L8.63367 76.2589L9.54216 75.9399L12.2218 85.3183L11.3133 85.6373ZM13.1734 80.4711L11.6099 75.0038L12.5184 74.6878L14.0819 80.1521L13.1734 80.4711ZM15.2708 87.4051L13.7099 81.9378L14.6184 81.6218L16.1793 87.0861L15.2708 87.4051ZM15.81 88.8718L16.7185 88.5528L21.0452 103.691L20.1368 104.007L15.81 88.8718ZM21.4712 108.678L20.5465 105.444L21.455 105.125L22.3797 108.362L21.4712 108.678ZM25.2103 106.961L24.3018 107.277L18.5947 87.3037L19.5032 86.9877L25.2103 106.961ZM19.0369 85.0769L18.1284 85.3928L14.8179 73.8174L15.7264 73.4984L19.0369 85.0769Z" fill="black"/>
<path d="M28.8487 110.86L28.8352 110.812L17.5775 115.01C16.8145 115.29 16.1406 115.552 15.5529 115.761C15.3025 115.837 15.0406 115.855 14.7837 115.814C14.5267 115.773 14.2801 115.674 14.0594 115.522C13.787 115.335 13.5625 115.073 13.407 114.762C13.3019 114.554 13.2776 114.431 13.2695 114.434L13.2965 114.521C13.3246 114.606 13.3579 114.688 13.3962 114.768C13.5477 115.086 13.7717 115.354 14.0459 115.546C14.2682 115.704 14.5179 115.808 14.7789 115.852C15.0398 115.896 15.3063 115.88 15.561 115.803C16.1541 115.597 16.828 115.341 17.5936 115.06L30.5147 110.291L33.5799 109.158L33.8764 108.991L28.8487 110.86Z" fill="#212121"/>
<path d="M13.1719 114.086C13.1045 113.856 13.0021 113.519 12.8727 113.075C12.6031 112.181 12.2122 110.875 11.7054 109.2C10.6891 105.825 9.21447 100.942 7.39209 94.9113C6.47821 91.8975 5.48075 88.5945 4.40781 85.047C3.86865 83.2742 3.3151 81.4429 2.74718 79.5529C2.60161 79.0789 2.45873 78.6049 2.31316 78.1249L2.09479 77.4035C2.0153 77.1672 1.95045 76.9252 1.90069 76.6791C1.82079 76.1826 1.91217 75.6709 2.1568 75.2452C2.40442 74.8105 2.78838 74.492 3.23513 74.3509L14.5576 70.1774L20.5423 67.9595L23.6048 66.8267C23.8512 66.716 24.111 66.6457 24.3758 66.618C24.639 66.602 24.9021 66.6499 25.1468 66.7581C25.3925 66.8677 25.614 67.0347 25.7959 67.2477C25.9778 67.4607 26.116 67.7147 26.2009 67.9923C28.6622 76.1097 31.021 83.8874 33.21 91.0807L33.1911 90.5977C31.0507 83.5266 28.7376 75.9011 26.3303 67.9416C26.2391 67.6442 26.091 67.372 25.896 67.1436C25.7011 66.9152 25.4639 66.7359 25.2007 66.618C24.938 66.5019 24.6555 66.4511 24.3731 66.4689C24.0955 66.4967 23.8231 66.569 23.5643 66.6836L20.5046 67.8194L14.5199 70.0373L3.19739 74.2346C2.72386 74.379 2.31502 74.7111 2.04896 75.1677C1.7893 75.6223 1.69311 76.1679 1.77938 76.697C1.83084 76.9491 1.89749 77.1971 1.97887 77.4393C2.05166 77.6808 2.12714 77.9192 2.19993 78.1607C2.34281 78.6377 2.48838 79.1146 2.63126 79.5857C3.20637 81.4717 3.76261 83.3031 4.29998 85.0798L7.30852 94.9322L11.6569 109.206C12.1745 110.887 12.5735 112.187 12.8457 113.081C12.9832 113.522 13.0884 113.859 13.1585 114.089L13.269 114.431C13.269 114.431 13.2393 114.315 13.1719 114.086Z" fill="#212121"/>
<path d="M19.4928 86.9916L18.5854 87.3087L24.2937 107.28L25.2011 106.963L19.4928 86.9916Z" fill="#FAFAFA"/>
<path d="M15.7253 73.498L14.8179 73.8152L18.1286 85.3983L19.036 85.0811L15.7253 73.498Z" fill="#FAFAFA"/>
<path d="M12.5182 74.6859L11.6108 75.0031L13.1732 80.4691L14.0806 80.152L12.5182 74.6859Z" fill="#FAFAFA"/>
<path d="M9.36889 75.6611L8.46484 75.9768L11.1337 85.3225L12.0378 85.0068L9.36889 75.6611Z" fill="#FAFAFA"/>
<path d="M21.4655 105.123L20.5581 105.44L21.4827 108.675L22.39 108.358L21.4655 105.123Z" fill="#FAFAFA"/>
<path d="M14.6149 81.6211L13.7075 81.9382L15.2699 87.4043L16.1772 87.0872L14.6149 81.6211Z" fill="#FAFAFA"/>
<path d="M16.7067 88.5594L15.7993 88.8766L20.1256 104.013L21.033 103.696L16.7067 88.5594Z" fill="#FAFAFA"/>
<path d="M16.8335 69.3367L28.8353 110.812L28.8488 110.86L33.8765 108.997L33.6851 103.852L22.8398 67.1099L16.8335 69.3367Z" fill="#FAFAFA"/>
<path d="M28.7812 113.337L33.6553 111.441L33.5502 109.077L28.8486 110.86L28.7812 113.337Z" fill="#212121"/>
<path d="M90.2348 44.716C90.2348 44.7578 90.0838 44.7846 89.8951 44.7757C89.7064 44.7667 89.5608 44.725 89.5635 44.6803C89.5662 44.6355 89.7172 44.6117 89.9032 44.6206C90.0892 44.6296 90.2375 44.6713 90.2348 44.716Z" fill="#212121"/>
<path d="M92.8742 44.5909C92.6671 44.6874 92.4437 44.7331 92.2191 44.725C91.9983 44.7698 91.7714 44.7627 91.5532 44.7042C91.9813 44.5635 92.4316 44.5249 92.8742 44.5909Z" fill="#212121"/>
<path d="M95.4891 44.0751C95.2948 44.1999 95.079 44.2781 94.8556 44.3046C94.6415 44.3799 94.4159 44.4063 94.1924 44.3821C94.6007 44.1827 95.0427 44.0811 95.4891 44.084V44.0751Z" fill="#212121"/>
<path d="M98.0101 43.184C97.8327 43.3349 97.6289 43.4435 97.4116 43.5029C97.2094 43.6104 96.9889 43.6693 96.7646 43.6758C96.9414 43.5237 97.1454 43.415 97.3631 43.3569C97.5663 43.2523 97.7862 43.1935 98.0101 43.184Z" fill="#212121"/>
<path d="M100.402 41.9229C100.244 42.0991 100.055 42.2372 99.8466 42.3283C99.659 42.4649 99.4479 42.5572 99.2266 42.5996C99.3847 42.4232 99.5737 42.2843 99.7819 42.1911C99.9695 42.0551 100.181 41.9638 100.402 41.9229Z" fill="#212121"/>
<path d="M102.604 40.2983C102.628 40.3311 102.407 40.5517 102.108 40.7902C101.941 40.9558 101.744 41.0807 101.531 41.1569C101.509 41.1211 101.73 40.9005 102.027 40.662C102.323 40.4235 102.579 40.2625 102.604 40.2983Z" fill="#212121"/>
<path d="M104.55 38.3128C104.58 38.3426 104.391 38.6109 104.132 38.8852C103.873 39.1594 103.639 39.38 103.614 39.3472C103.59 39.3144 103.774 39.0491 104.032 38.7749C104.291 38.5006 104.52 38.2741 104.55 38.3128Z" fill="#212121"/>
<path d="M106.159 35.9903C106.194 36.0112 106.048 36.2884 105.838 36.6343C105.628 36.9801 105.431 37.2305 105.401 37.1917C105.468 36.9544 105.577 36.7343 105.722 36.5448C105.932 36.2169 106.127 35.9665 106.159 35.9903Z" fill="#212121"/>
<path d="M107.346 33.373C107.254 33.8573 107.07 34.3145 106.807 34.7145C106.829 34.4683 106.897 34.2297 107.006 34.014C107.078 33.7764 107.193 33.558 107.346 33.373Z" fill="#212121"/>
<path d="M108.047 30.5529C108.067 30.7997 108.04 31.0484 107.969 31.2832C107.942 31.53 107.869 31.7678 107.753 31.9808C107.758 31.4872 107.858 31.0004 108.047 30.5529Z" fill="#212121"/>
<path d="M108.316 27.6406C108.384 28.1285 108.356 28.6268 108.233 29.1013C108.178 28.8616 108.169 28.6119 108.206 28.368C108.198 28.1198 108.235 27.8723 108.316 27.6406Z" fill="#212121"/>
<path d="M108.183 24.7191C108.317 25.19 108.356 25.6874 108.299 26.1769C108.214 25.9482 108.171 25.7029 108.172 25.4554C108.131 25.2117 108.134 24.9612 108.183 24.7191Z" fill="#212121"/>
<path d="M107.648 21.8512C107.767 22.0614 107.845 22.2971 107.877 22.5428C107.953 22.7766 107.984 23.0253 107.969 23.2732C107.851 23.0623 107.773 22.8269 107.74 22.5816C107.665 22.3475 107.634 22.099 107.648 21.8512Z" fill="#212121"/>
<path d="M106.688 19.1235C106.837 19.3082 106.95 19.5255 107.019 19.7615C107.131 19.9774 107.2 20.2173 107.221 20.465C107.073 20.2778 106.961 20.06 106.89 19.8241C106.779 19.6084 106.711 19.3699 106.688 19.1235Z" fill="#212121"/>
<path d="M105.275 16.6464C105.305 16.6196 105.499 16.867 105.712 17.2009C105.858 17.3889 105.967 17.6081 106.033 17.8448C106.001 17.8686 105.804 17.6182 105.596 17.2903C105.451 17.1022 105.341 16.8831 105.275 16.6464Z" fill="#212121"/>
<path d="M103.439 14.5477C103.464 14.5149 103.709 14.6938 103.979 14.971C104.248 15.2482 104.432 15.5106 104.405 15.5404C104.378 15.5702 104.151 15.3585 103.884 15.0843C103.617 14.81 103.415 14.5805 103.439 14.5477Z" fill="#212121"/>
<path d="M101.792 13.2895C101.811 13.2537 101.957 13.3104 102.116 13.4177C102.275 13.525 102.385 13.6413 102.366 13.6771C102.347 13.7128 102.199 13.6562 102.043 13.5519C101.886 13.4475 101.771 13.3283 101.792 13.2895Z" fill="#212121"/>
<path d="M94.4809 20.6529C99.6383 20.6529 103.819 16.0296 103.819 10.3264C103.819 4.6233 99.6383 0 94.4809 0C89.3235 0 85.1426 4.6233 85.1426 10.3264C85.1426 16.0296 89.3235 20.6529 94.4809 20.6529Z" fill="#FFC300"/>
<path d="M88.9575 11.0807L90.4025 9.48282L93.19 12.2224L98.6625 6.40039L100.005 7.99824L92.9851 15.3048L88.9575 11.0807Z" fill="#FAFAFA"/>
<path d="M102.439 36.6644C101.881 37.6928 101.938 38.9836 102.094 40.1731C102.251 41.3625 102.493 42.5758 102.253 43.7504C102.094 44.5225 101.714 45.2946 101.897 46.0607C102.019 46.6062 102.388 47.0355 102.571 47.5512C102.841 48.2965 102.687 49.1252 102.598 49.9182C102.509 50.7112 102.515 51.5966 102.989 52.1958C103.58 52.941 104.666 52.9082 105.475 52.4939C106.284 52.0795 106.925 51.3432 107.675 50.8036C108.424 50.264 109.4 49.9093 110.206 50.3385C110.578 50.5353 110.899 50.8871 111.309 50.9348C111.883 50.9825 112.336 50.4011 112.891 50.2312C113.368 50.0881 113.878 50.264 114.368 50.2014C115.369 50.0792 116.107 48.8868 115.967 47.7868C115.873 47.2375 115.628 46.7339 115.265 46.3448C114.902 45.9558 114.439 45.7003 113.94 45.6135C113.517 45.536 113.007 45.5241 112.775 45.1247C112.43 44.5284 113.045 43.7802 112.929 43.0916C112.853 42.5967 112.427 42.2658 112.01 42.0631C111.592 41.8604 111.131 41.7262 110.807 41.3745C110.228 40.7484 110.292 39.723 110.114 38.8465C109.821 37.4037 108.599 34.4494 105.941 34.1603" fill="#212121"/>
<path d="M101.207 118.763L101.258 116.658L104.824 116.739L104.779 119.818H104.557C103.573 119.857 99.5459 119.937 98.8962 119.702C98.163 119.448 101.207 118.763 101.207 118.763Z" fill="#FFC300"/>
<path d="M103.488 119.755C103.546 119.424 103.713 119.129 103.957 118.927C104.196 118.724 104.496 118.628 104.796 118.658L104.777 119.758L103.488 119.755Z" fill="#FFC300"/>
<path d="M99.7188 119.153C99.7188 119.153 98.6405 119.469 98.7806 119.666C98.9208 119.863 102.981 119.964 104.779 119.815V119.729L100.031 119.669C100.031 119.669 99.9264 119.168 99.7188 119.153Z" fill="#FFC300"/>
<path d="M104.831 119.726H104.769H104.593L103.946 119.744C103.407 119.744 102.642 119.744 101.806 119.744C100.97 119.744 100.213 119.693 99.6655 119.66L99.0185 119.615L98.8433 119.601H98.7812H98.8433H99.0185L99.6682 119.627C100.207 119.651 100.97 119.681 101.806 119.699C102.642 119.717 103.397 119.72 103.944 119.717H104.831V119.726Z" fill="#212121"/>
<path d="M100.027 119.732C99.9998 119.612 99.961 119.496 99.911 119.386C99.8484 119.284 99.7761 119.19 99.6953 119.106C99.8055 119.154 99.8957 119.245 99.9487 119.362C100.014 119.471 100.042 119.602 100.027 119.732Z" fill="#212121"/>
<path d="M101.089 119.162C101.089 119.162 101.029 119.1 100.978 119.01C100.927 118.921 100.895 118.837 100.905 118.831C100.916 118.825 100.965 118.894 101.016 118.983C101.067 119.073 101.099 119.156 101.089 119.162Z" fill="#212121"/>
<path d="M101.38 119.001C101.38 119.001 101.318 118.969 101.256 118.906C101.194 118.843 101.154 118.784 101.162 118.775C101.17 118.766 101.226 118.808 101.286 118.87C101.345 118.933 101.388 118.992 101.38 119.001Z" fill="#212121"/>
<path d="M101.568 118.632C101.568 118.647 101.485 118.656 101.382 118.656C101.28 118.656 101.196 118.656 101.196 118.629C101.256 118.606 101.32 118.599 101.382 118.608C101.445 118.601 101.509 118.609 101.568 118.632Z" fill="#212121"/>
<path d="M101.636 118.372C101.575 118.416 101.502 118.438 101.429 118.435C101.356 118.448 101.281 118.434 101.216 118.396C101.286 118.39 101.356 118.39 101.426 118.396C101.495 118.379 101.566 118.371 101.636 118.372Z" fill="#212121"/>
<path d="M100.962 118.816C100.886 118.831 100.809 118.831 100.733 118.816C100.651 118.802 100.57 118.78 100.491 118.751C100.443 118.734 100.397 118.712 100.353 118.685C100.326 118.667 100.306 118.638 100.296 118.605C100.293 118.586 100.295 118.566 100.302 118.548C100.309 118.53 100.32 118.515 100.334 118.503C100.423 118.459 100.523 118.449 100.617 118.476C100.711 118.503 100.794 118.566 100.852 118.652C100.886 118.703 100.91 118.761 100.922 118.822C100.922 118.864 100.922 118.891 100.922 118.891C100.901 118.812 100.867 118.739 100.822 118.673C100.772 118.604 100.704 118.553 100.628 118.527C100.54 118.493 100.443 118.498 100.358 118.542C100.321 118.572 100.334 118.62 100.375 118.646C100.415 118.672 100.457 118.693 100.501 118.709C100.578 118.741 100.656 118.766 100.736 118.784C100.887 118.807 100.962 118.807 100.962 118.816Z" fill="#212121"/>
<path d="M100.913 118.828C100.887 118.775 100.879 118.712 100.891 118.652C100.899 118.584 100.924 118.519 100.962 118.465C100.981 118.427 101.009 118.396 101.044 118.374C101.078 118.352 101.116 118.34 101.156 118.339C101.178 118.346 101.198 118.363 101.21 118.385C101.223 118.407 101.227 118.433 101.223 118.459C101.216 118.498 101.203 118.536 101.183 118.569C101.151 118.624 101.114 118.675 101.072 118.721C101.035 118.766 100.989 118.801 100.937 118.822C100.937 118.822 100.986 118.778 101.05 118.697C101.088 118.652 101.121 118.602 101.148 118.548C101.18 118.494 101.204 118.399 101.148 118.387C101.091 118.375 101.029 118.441 100.994 118.492C100.96 118.539 100.937 118.596 100.926 118.655C100.918 118.713 100.914 118.77 100.913 118.828Z" fill="#212121"/>
<path d="M104.777 118.646C104.777 118.646 104.677 118.632 104.507 118.646C104.296 118.668 104.095 118.754 103.927 118.897C103.759 119.039 103.631 119.232 103.558 119.451C103.502 119.618 103.493 119.732 103.485 119.732C103.482 119.705 103.482 119.678 103.485 119.651C103.518 119.373 103.638 119.117 103.824 118.928C104.011 118.738 104.251 118.627 104.504 118.614C104.569 118.608 104.634 118.608 104.698 118.614C104.752 118.635 104.779 118.643 104.777 118.646Z" fill="#212121"/>
<path d="M104.437 116.998C104.458 117.268 104.463 117.539 104.454 117.809C104.46 118.079 104.451 118.348 104.426 118.617C104.407 118.348 104.402 118.078 104.41 117.809C104.405 117.538 104.414 117.268 104.437 116.998Z" fill="#212121"/>
<path d="M103.046 119.359C102.874 119.4 102.698 119.415 102.523 119.404C102.348 119.409 102.173 119.39 102.002 119.347C102.002 119.332 102.237 119.347 102.525 119.347C102.814 119.347 103.043 119.359 103.046 119.359Z" fill="#212121"/>
<path d="M103.745 119.377C103.745 119.377 103.726 119.431 103.699 119.487C103.672 119.544 103.661 119.601 103.647 119.598C103.633 119.595 103.631 119.535 103.661 119.469C103.691 119.404 103.737 119.359 103.745 119.377Z" fill="#212121"/>
<path d="M104.014 119.019C104.014 119.019 103.998 119.07 103.96 119.109C103.922 119.147 103.887 119.174 103.879 119.165C103.871 119.156 103.893 119.115 103.93 119.076C103.968 119.037 104.006 119.01 104.014 119.019Z" fill="#212121"/>
<path d="M104.393 118.861C104.393 118.876 104.342 118.861 104.291 118.894C104.24 118.927 104.199 118.942 104.191 118.933C104.183 118.924 104.213 118.87 104.278 118.847C104.342 118.823 104.396 118.849 104.393 118.861Z" fill="#212121"/>
<path d="M104.665 118.789C104.665 118.789 104.649 118.822 104.619 118.834C104.589 118.846 104.559 118.834 104.556 118.834C104.553 118.834 104.572 118.801 104.602 118.789C104.632 118.778 104.66 118.778 104.665 118.789Z" fill="#212121"/>
<path d="M111.324 118.763L111.375 116.658L114.939 116.739L114.893 119.818H114.672C113.688 119.857 109.663 119.937 109.011 119.702C108.28 119.448 111.324 118.763 111.324 118.763Z" fill="#FFC300"/>
<path d="M113.603 119.755C113.662 119.424 113.83 119.129 114.074 118.927C114.313 118.723 114.613 118.627 114.913 118.658L114.891 119.758L113.603 119.755Z" fill="#FFC300"/>
<path d="M109.837 119.153C109.837 119.153 108.758 119.469 108.896 119.666C109.033 119.863 113.096 119.964 114.894 119.815V119.729L110.144 119.669C110.144 119.669 110.044 119.168 109.837 119.153Z" fill="#FFC300"/>
<path d="M114.948 119.726H114.886H114.71L114.061 119.744C113.522 119.744 112.756 119.744 111.92 119.744C111.085 119.744 110.327 119.693 109.782 119.66L109.133 119.615L108.958 119.601H108.896H108.958H109.135L109.782 119.627C110.322 119.651 111.085 119.681 111.92 119.699C112.756 119.717 113.513 119.72 114.061 119.717H114.948V119.726Z" fill="#212121"/>
<path d="M110.141 119.732C110.116 119.612 110.078 119.496 110.028 119.386C109.966 119.284 109.893 119.19 109.812 119.106C109.918 119.16 110.007 119.25 110.066 119.362C110.124 119.474 110.151 119.603 110.141 119.732Z" fill="#212121"/>
<path d="M111.206 119.162C111.206 119.162 111.147 119.1 111.098 119.01C111.05 118.921 111.015 118.837 111.025 118.831C111.036 118.825 111.085 118.894 111.133 118.983C111.182 119.073 111.206 119.156 111.206 119.162Z" fill="#212121"/>
<path d="M111.497 119.001C111.497 119.001 111.432 118.969 111.373 118.906C111.314 118.843 111.271 118.784 111.279 118.775C111.287 118.766 111.341 118.808 111.403 118.87C111.465 118.933 111.505 118.992 111.497 119.001Z" fill="#212121"/>
<path d="M111.686 118.632C111.686 118.647 111.602 118.656 111.499 118.656C111.397 118.656 111.313 118.656 111.313 118.629C111.373 118.606 111.437 118.599 111.499 118.608C111.562 118.601 111.626 118.609 111.686 118.632Z" fill="#212121"/>
<path d="M111.745 118.372C111.681 118.415 111.608 118.437 111.534 118.435C111.461 118.448 111.387 118.434 111.321 118.396C111.391 118.39 111.462 118.39 111.532 118.396C111.601 118.379 111.673 118.371 111.745 118.372Z" fill="#212121"/>
<path d="M111.09 118.816C111.014 118.831 110.937 118.831 110.861 118.816C110.779 118.802 110.697 118.78 110.618 118.751C110.569 118.735 110.522 118.713 110.478 118.685C110.452 118.667 110.433 118.638 110.424 118.605C110.421 118.586 110.423 118.567 110.429 118.549C110.435 118.531 110.446 118.515 110.459 118.503C110.548 118.458 110.648 118.448 110.742 118.475C110.837 118.502 110.92 118.565 110.977 118.652C111.012 118.702 111.037 118.76 111.05 118.822C111.054 118.845 111.054 118.868 111.05 118.891C111.028 118.812 110.993 118.738 110.947 118.673C110.898 118.605 110.831 118.554 110.756 118.527C110.668 118.494 110.571 118.499 110.486 118.542C110.451 118.572 110.465 118.62 110.502 118.646C110.543 118.672 110.587 118.693 110.632 118.709C110.708 118.741 110.786 118.766 110.866 118.784C111.001 118.807 111.09 118.807 111.09 118.816Z" fill="#212121"/>
<path d="M111.031 118.828C111.003 118.775 110.994 118.712 111.007 118.652C111.016 118.586 111.039 118.523 111.074 118.468C111.093 118.43 111.121 118.399 111.155 118.377C111.188 118.355 111.226 118.343 111.265 118.342C111.288 118.349 111.309 118.365 111.322 118.387C111.335 118.409 111.34 118.436 111.335 118.462C111.329 118.502 111.315 118.54 111.292 118.572C111.262 118.628 111.225 118.679 111.182 118.724C111.145 118.769 111.1 118.803 111.05 118.825C111.05 118.825 111.095 118.781 111.16 118.7C111.198 118.654 111.231 118.604 111.26 118.551C111.292 118.497 111.314 118.402 111.26 118.39C111.206 118.378 111.144 118.444 111.106 118.494C111.074 118.544 111.052 118.599 111.039 118.658C111.031 118.715 111.029 118.772 111.031 118.828Z" fill="#212121"/>
<path d="M114.894 118.646C114.894 118.646 114.792 118.632 114.624 118.646C114.414 118.67 114.214 118.757 114.045 118.897C113.879 119.042 113.751 119.233 113.675 119.451C113.619 119.618 113.611 119.732 113.603 119.732C113.599 119.705 113.599 119.678 113.603 119.651C113.61 119.579 113.625 119.508 113.646 119.439C113.713 119.209 113.842 119.006 114.016 118.859C114.19 118.711 114.4 118.626 114.619 118.614C114.685 118.608 114.75 118.608 114.816 118.614C114.844 118.619 114.87 118.63 114.894 118.646Z" fill="#212121"/>
<path d="M114.554 116.998C114.573 117.268 114.579 117.538 114.57 117.809C114.575 118.079 114.566 118.348 114.543 118.617C114.522 118.348 114.517 118.078 114.527 117.809C114.52 117.538 114.529 117.267 114.554 116.998Z" fill="#212121"/>
<path d="M113.16 119.359C112.989 119.4 112.814 119.415 112.64 119.404C112.465 119.41 112.29 119.391 112.12 119.347C112.12 119.332 112.354 119.347 112.64 119.347C112.926 119.347 113.16 119.359 113.16 119.359Z" fill="#212121"/>
<path d="M113.86 119.377C113.86 119.377 113.841 119.431 113.817 119.487C113.792 119.544 113.776 119.601 113.765 119.598C113.754 119.595 113.748 119.535 113.765 119.469C113.781 119.404 113.855 119.359 113.86 119.377Z" fill="#212121"/>
<path d="M114.131 119.019C114.131 119.019 114.115 119.07 114.077 119.109C114.04 119.147 114.002 119.174 113.994 119.165C113.986 119.156 114.01 119.115 114.048 119.076C114.085 119.037 114.12 119.01 114.131 119.019Z" fill="#212121"/>
<path d="M114.508 118.861C114.508 118.876 114.459 118.861 114.405 118.894C114.352 118.927 114.317 118.942 114.306 118.933C114.295 118.924 114.327 118.87 114.392 118.847C114.457 118.823 114.513 118.849 114.508 118.861Z" fill="#212121"/>
<path d="M114.78 118.789C114.78 118.789 114.763 118.822 114.733 118.834C114.703 118.846 114.676 118.834 114.671 118.834C114.665 118.834 114.69 118.801 114.72 118.789C114.75 118.778 114.777 118.778 114.78 118.789Z" fill="#212121"/>
<path d="M100.487 64.6713L98.7778 92.8454V118.253H105.609C105.609 118.253 105.898 96.3422 105.717 94.9083C105.717 94.9083 106.833 72.9616 106.96 73.2746C107.229 73.9156 107.213 92.5711 107.596 94.8814C107.979 97.1918 109.753 118.253 109.753 118.253H116.328L114.117 94.1064C114.071 91.1968 113.395 65.6461 113.395 65.6461L100.487 64.6713Z" fill="#212121"/>
<path d="M116.18 116.81C116.105 116.869 116.017 116.903 115.926 116.908C115.679 116.932 115.431 116.887 115.204 116.777C114.888 116.606 114.556 116.474 114.214 116.384C113.829 116.321 113.427 116.545 113.044 116.828C112.692 117.135 112.279 117.346 111.839 117.442C111.475 117.481 111.107 117.431 110.761 117.296C110.531 117.212 110.306 117.113 110.087 116.998C110.004 116.963 109.927 116.913 109.858 116.852C109.858 116.825 110.211 117.007 110.788 117.198C111.123 117.311 111.475 117.347 111.823 117.305C112.242 117.207 112.634 117.003 112.969 116.709C113.16 116.565 113.364 116.443 113.578 116.345C113.785 116.254 114.01 116.224 114.231 116.256C114.585 116.347 114.928 116.488 115.25 116.676C115.462 116.788 115.694 116.846 115.929 116.846C116.088 116.84 116.174 116.795 116.18 116.81Z" fill="#455A64"/>
<path d="M105.666 116.634C105.599 116.564 105.527 116.499 105.45 116.441C105.232 116.306 104.976 116.263 104.731 116.321C104.367 116.435 104.027 116.624 103.728 116.879C103.536 117.021 103.332 117.143 103.119 117.242C102.881 117.35 102.621 117.384 102.366 117.341C101.849 117.242 101.439 116.944 101.018 116.843C100.652 116.755 100.271 116.774 99.9132 116.897C99.2932 117.102 98.9292 117.314 98.9185 117.284C98.9944 117.219 99.0778 117.165 99.1665 117.123C99.398 116.991 99.6387 116.879 99.8863 116.789C100.26 116.647 100.661 116.618 101.048 116.703C101.488 116.807 101.903 117.102 102.377 117.189C102.852 117.275 103.286 117.004 103.644 116.757C103.959 116.499 104.317 116.314 104.698 116.214C104.966 116.16 105.242 116.223 105.469 116.39C105.557 116.445 105.626 116.531 105.666 116.634Z" fill="#455A64"/>
<path d="M112.934 70.5143C112.814 70.5999 112.677 70.6511 112.535 70.6633C112.196 70.7195 111.849 70.6954 111.519 70.5926C111.188 70.4899 110.881 70.3107 110.618 70.0671C110.419 69.8793 110.33 69.7273 110.349 69.7153C110.698 70.0552 111.113 70.3029 111.562 70.4397C112.011 70.5766 112.482 70.599 112.939 70.5053L112.934 70.5143Z" fill="#455A64"/>
<path d="M101.593 69.4142C101.609 69.4142 101.609 69.5662 101.539 69.7868C101.444 70.0755 101.285 70.3337 101.078 70.5381C100.87 70.7422 100.62 70.8874 100.35 70.9614C100.142 71.012 100.01 70.9942 100.01 70.9763C100.372 70.8856 100.707 70.6946 100.984 70.4214C101.261 70.1481 101.47 69.8015 101.593 69.4142Z" fill="#455A64"/>
<path d="M99.9289 55.3495L98.554 49.7778C98.554 49.7778 92.0841 51.641 91.6716 51.0627C89.3235 47.8521 88.1374 43.4401 87.768 41.8571C87.8193 41.6306 87.8894 41.3653 87.9837 41.0552C88.0656 40.7899 88.1878 40.5419 88.345 40.3219C88.5302 40.0413 88.7498 39.7905 88.9973 39.5766C89.0491 39.5443 89.0907 39.4952 89.1166 39.436C89.1424 39.3768 89.1512 39.3102 89.1418 39.2453C89.1324 39.1804 89.1053 39.1202 89.064 39.0728C89.0228 39.0255 88.9694 38.9932 88.9111 38.9804C88.6415 38.9595 87.9621 39.4127 87.4526 40.2742C86.9431 41.1357 86.7895 39.5259 86.7248 38.9416C86.6601 38.3574 86.377 36.5568 86.1991 36.4286C85.9295 36.2527 85.7165 36.53 85.7947 37.1142C85.8729 37.6985 85.9942 39.4693 85.7138 39.4991C85.4335 39.5289 85.1369 36.518 85.1369 36.518C85.1369 36.518 85.1666 35.8682 84.8404 35.8831C84.25 35.9099 84.7811 39.0639 84.8404 39.365C84.8808 39.5707 84.5708 39.6094 84.5438 39.3828C84.5169 39.1563 84.3066 36.4018 83.7081 36.4018C83.2471 36.4197 84.1206 39.0013 83.8753 39.6005C83.63 40.1997 83.3927 37.5674 82.9533 37.6031C82.7916 37.6031 82.6702 37.6508 83.0045 39.1414C83.2862 40.2037 83.6192 41.2486 84.002 42.2715H83.9777C83.9777 42.2715 86.377 57.8386 92.6044 56.9682C99.2334 56.0619 99.9289 55.3495 99.9289 55.3495Z" fill="#FFBE9D"/>
<path d="M90.535 70.7944L51.0223 67.6136C50.7554 67.5932 50.4947 67.5147 50.2553 67.3826C50.0159 67.2506 49.8024 67.0675 49.627 66.844C49.4517 66.6205 49.318 66.3609 49.2336 66.0802C49.1492 65.7994 49.1158 65.503 49.1353 65.2079L50.9037 38.3633C50.9222 38.0682 50.9931 37.7799 51.1126 37.5151C51.232 37.2504 51.3975 37.0143 51.5996 36.8204C51.8018 36.6265 52.0365 36.4787 52.2904 36.3854C52.5443 36.292 52.8124 36.2551 53.0793 36.2766L92.6054 39.4663C92.8722 39.4871 93.1327 39.5658 93.372 39.698C93.6112 39.8302 93.8246 40.0133 93.9999 40.2367C94.1751 40.4601 94.3088 40.7195 94.3934 41.0001C94.4779 41.2808 94.5116 41.577 94.4925 41.872L92.724 68.7166C92.705 69.0125 92.6331 69.3012 92.5125 69.5662C92.3918 69.8312 92.2249 70.0671 92.0214 70.2603C91.8178 70.4535 91.5817 70.6002 91.3266 70.6919C91.0714 70.7835 90.8024 70.8184 90.535 70.7944Z" fill="#FFC300"/>
<path d="M90.5346 70.7944C90.655 70.8017 90.7756 70.8017 90.8959 70.7944C91.2495 70.752 91.5864 70.6059 91.8718 70.3711C92.1021 70.1822 92.2934 69.9412 92.4329 69.6642C92.5724 69.3871 92.6568 69.0803 92.6805 68.7643C92.729 68.0071 92.7856 67.1336 92.8477 66.1529L93.926 49.5274C94.0392 47.7726 94.1587 45.9352 94.2845 44.0154C94.3169 43.5385 94.3465 43.0525 94.3789 42.5666C94.4112 42.0807 94.4867 41.5799 94.3465 41.1149C94.2249 40.6396 93.9582 40.2256 93.5917 39.9433C93.408 39.7995 93.2039 39.6907 92.9878 39.6213C92.7648 39.5641 92.5373 39.5311 92.3085 39.523L80.3902 38.572L53.0842 36.363C52.792 36.3398 52.4987 36.3891 52.2259 36.5072C51.9531 36.6253 51.7075 36.8093 51.5072 37.0457C51.3072 37.2811 51.1579 37.5633 51.0705 37.8714C50.9948 38.1867 50.955 38.5112 50.9518 38.8373C50.862 40.1609 50.7721 41.4746 50.6823 42.7783C50.5025 45.3877 50.3336 47.9554 50.1754 50.4814C49.8412 55.5313 49.5177 60.4054 49.2103 65.0439C49.1396 65.6073 49.2669 66.1792 49.5662 66.6418C49.8608 67.0972 50.3032 67.4091 50.8009 67.5122C51.8064 67.6225 52.8254 67.6821 53.8175 67.7716L59.6 68.2396L69.9844 69.0862L85.0163 70.3204L89.1005 70.6662L90.1788 70.7676L90.54 70.8033C90.54 70.8033 90.4187 70.8033 90.1788 70.7825L89.1005 70.705L85.0136 70.3919L69.9763 69.1995L59.6 68.3827L53.8148 67.9206C52.82 67.8342 51.8199 67.7775 50.7847 67.6643C50.2547 67.5557 49.7833 67.2245 49.4691 66.7401C49.1543 66.2498 49.0185 65.6461 49.089 65.0499C49.3937 60.4083 49.7145 55.5373 50.046 50.4844C50.2114 47.9584 50.3794 45.3907 50.5502 42.7813C50.6364 41.4756 50.7263 40.1619 50.8197 38.8403C50.8242 38.5021 50.8659 38.1657 50.9438 37.8387C51.0867 37.3405 51.3773 36.9101 51.7686 36.617C52.1598 36.3239 52.629 36.185 53.1004 36.2229L80.4064 38.4289L92.322 39.3948C92.5581 39.4046 92.7928 39.4395 93.0229 39.4991C93.2516 39.572 93.4676 39.6868 93.6618 39.839C94.0513 40.1383 94.3366 40.5759 94.4705 41.0791C94.5353 41.3247 94.5617 41.5808 94.5487 41.8363C94.5487 42.0867 94.5191 42.3281 94.5029 42.5756C94.4705 43.0615 94.4382 43.5474 94.4058 44.0244C94.28 45.9402 94.1578 47.7766 94.0392 49.5334C93.5674 56.5508 93.1846 62.2298 92.9204 66.1588C92.854 67.1386 92.7946 68.0081 92.7425 68.7673C92.7162 69.0894 92.6274 69.4015 92.4823 69.6824C92.3371 69.9632 92.139 70.2063 91.9014 70.3949C91.6118 70.6298 91.2697 70.773 90.9121 70.8093C90.8223 70.8173 90.7322 70.8173 90.6425 70.8093L90.5346 70.7944Z" fill="#212121"/>
<path d="M87.7281 46.4003C87.6829 47.0571 87.4627 47.6843 87.0953 48.2027C86.728 48.7212 86.23 49.1076 85.6641 49.3133C85.0983 49.519 84.49 49.5347 83.9161 49.3584C83.3423 49.1821 82.8285 48.8217 82.4397 48.3227C82.0509 47.8238 81.8045 47.2086 81.7316 46.5549C81.6588 45.9012 81.7627 45.2383 82.0303 44.6499C82.2979 44.0614 82.7171 43.5739 83.2351 43.2487C83.7531 42.9236 84.3466 42.7755 84.9407 42.823C85.3361 42.8555 85.7219 42.9738 86.076 43.1711C86.4301 43.3685 86.7456 43.641 87.0045 43.9732C87.2633 44.3054 87.4604 44.6907 87.5846 45.1072C87.7088 45.5236 87.7576 45.963 87.7281 46.4003Z" fill="#FAFAFA"/>
<path d="M88.3454 49.9361C88.27 49.9361 88.1918 49.9361 88.1163 49.9361C87.301 49.9029 86.53 49.5171 85.9692 48.8618C85.4085 48.2065 85.1027 47.334 85.1177 46.4319C85.1327 45.5299 85.4673 44.6704 86.0495 44.0383C86.6317 43.4062 87.415 43.0521 88.2309 43.0521C89.0467 43.0521 89.83 43.4062 90.4122 44.0383C90.9944 44.6704 91.329 45.5299 91.344 46.4319C91.359 47.334 91.0533 48.2065 90.4925 48.8618C89.9317 49.5171 89.1608 49.9029 88.3454 49.9361ZM88.3454 43.2674C87.5986 43.2979 86.8924 43.6513 86.3788 44.2516C85.8651 44.8519 85.5851 45.6511 85.5989 46.4774C85.6127 47.3037 85.9192 48.0909 86.4525 48.6699C86.9858 49.2488 87.7032 49.5732 88.4506 49.5732C89.1979 49.5732 89.9154 49.2488 90.4487 48.6699C90.982 48.0909 91.2885 47.3037 91.3023 46.4774C91.3161 45.6511 91.036 44.8519 90.5224 44.2516C90.0087 43.6513 89.3025 43.2979 88.5557 43.2674H88.3454Z" fill="#FAFAFA"/>
<path d="M53.6035 56.4585L53.4283 59.1415L53.1803 59.1206L53.3393 56.691L52.7705 56.6463L52.7867 56.4019L53.6035 56.4585Z" fill="#FAFAFA"/>
<path d="M55.9416 59.0967L55.9227 59.3411L54.2271 59.204V59.0102L55.3054 58.0026C55.5965 57.7254 55.6612 57.5525 55.672 57.3676C55.6936 57.0695 55.5076 56.8519 55.1328 56.8221C55.0102 56.8026 54.8852 56.8145 54.7674 56.8569C54.6497 56.8993 54.5422 56.971 54.4535 57.0665L54.2891 56.8847C54.4058 56.7634 54.5454 56.6724 54.6979 56.6182C54.8504 56.5641 55.0119 56.5482 55.1706 56.5717C55.6612 56.6104 55.9551 56.9115 55.9254 57.3587C55.9081 57.5214 55.8585 57.6779 55.7802 57.817C55.7019 57.9561 55.5969 58.0745 55.4725 58.1636L54.5937 58.9893L55.9416 59.0967Z" fill="#FAFAFA"/>
<path d="M58.508 58.8432L58.0254 58.8044L57.9769 59.508L57.7289 59.4871L57.7747 58.7836L56.4106 58.6763V58.4765L57.8098 56.8071L58.0794 56.828L56.7314 58.4557L57.7828 58.5421L57.8233 57.9221L58.0659 57.9399L58.0254 58.56L58.508 58.5988V58.8432Z" fill="#FAFAFA"/>
<path d="M62.2145 59.1415L61.732 59.1028L61.6835 59.8063L61.4354 59.7855L61.4813 59.0849L60.1172 58.9746V58.7749L61.5163 57.1055L61.7859 57.1293L60.438 58.754L61.4894 58.8405L61.5298 58.2204L61.7724 58.2413L61.7293 58.8583L62.2145 58.8971V59.1415Z" fill="#FAFAFA"/>
<path d="M64.3334 59.2279C64.3038 59.684 63.9938 60.0149 63.4034 59.9672C63.0843 59.9546 62.782 59.8062 62.5596 59.5528L62.6944 59.3471C62.8824 59.5698 63.1417 59.7024 63.4168 59.7168C63.8266 59.7496 64.0585 59.5439 64.08 59.2189C64.1016 58.894 63.9237 58.6466 63.309 58.5959L62.7941 58.5542L63.0071 57.2246L64.3307 57.3319L64.3146 57.5764L63.2093 57.4869L63.0691 58.3306L63.3818 58.3574C64.1097 58.4141 64.3658 58.7539 64.3334 59.2279Z" fill="#FAFAFA"/>
<path d="M66.7249 59.4097C66.7163 59.525 66.6862 59.637 66.6363 59.7387C66.5865 59.8404 66.5181 59.9295 66.4355 60.0004C66.3528 60.0713 66.2578 60.1225 66.1563 60.1506C66.0549 60.1788 65.9492 60.1833 65.8461 60.1639C65.2018 60.1132 64.8864 59.5915 64.943 58.7479C65.0023 57.8387 65.4822 57.4004 66.1399 57.4541C66.3398 57.4606 66.5345 57.5265 66.7034 57.6449L66.5875 57.8595C66.4514 57.7567 66.2912 57.6998 66.1265 57.6956C65.6035 57.6538 65.2449 57.9937 65.1964 58.7211C65.1964 58.7837 65.1964 58.8612 65.1964 58.9417C65.2751 58.7992 65.3898 58.6855 65.5264 58.6145C65.6629 58.5434 65.8154 58.5183 65.9647 58.5422C66.0677 58.5377 66.1704 58.5573 66.2661 58.5997C66.3618 58.6421 66.4483 58.7063 66.5201 58.7881C66.5918 58.87 66.6471 58.9677 66.6824 59.0748C66.7177 59.1819 66.7322 59.296 66.7249 59.4097ZM66.4796 59.4097C66.5039 59.0579 66.2828 58.8135 65.9108 58.7837C65.8355 58.7679 65.758 58.7695 65.6833 58.7882C65.6085 58.8069 65.538 58.8423 65.4761 58.8923C65.4142 58.9423 65.3622 59.0058 65.3234 59.0789C65.2845 59.152 65.2597 59.2331 65.2503 59.3173C65.2288 59.6154 65.4336 59.9135 65.8515 59.9433C65.9257 59.9572 66.0016 59.9538 66.0745 59.9334C66.1474 59.9129 66.2157 59.8758 66.2748 59.8244C66.334 59.773 66.3828 59.7085 66.418 59.635C66.4533 59.5616 66.4743 59.4807 66.4796 59.3978V59.4097Z" fill="#FAFAFA"/>
<path d="M70.0324 59.7077C70.0028 60.1549 69.6873 60.4738 69.1024 60.4262C68.7826 60.4131 68.4796 60.2648 68.2559 60.0118L68.3907 59.8061C68.5814 60.0281 68.842 60.1604 69.1185 60.1757C69.5202 60.2056 69.7547 60.0177 69.7763 59.6868C69.7979 59.3559 69.6065 59.1383 69.159 59.0906L68.9864 59.0757L68.9999 58.873L69.7305 57.9996L68.4931 57.9012L68.5093 57.6567L70.0648 57.7819L70.0513 57.9757L69.3045 58.87C69.8221 58.9565 70.0594 59.2784 70.0324 59.7077Z" fill="#FAFAFA"/>
<path d="M72.459 59.8717C72.4512 59.9878 72.4215 60.1008 72.3718 60.2035C72.3221 60.3061 72.2535 60.3961 72.1705 60.4677C72.0875 60.5393 71.9918 60.5909 71.8897 60.6191C71.7876 60.6474 71.6812 60.6518 71.5775 60.6319C70.9359 60.5812 70.6178 60.0595 70.6744 59.2159C70.7337 58.3216 71.2136 57.8685 71.8714 57.9221C72.0712 57.9286 72.2659 57.9945 72.4348 58.1129L72.3189 58.3275C72.1833 58.2235 72.0229 58.1664 71.8579 58.1636C71.3349 58.1218 70.9763 58.4617 70.9278 59.1891C70.9278 59.2517 70.9278 59.3262 70.9278 59.4097C71.0065 59.2672 71.1212 59.1535 71.2578 59.0825C71.3943 59.0115 71.5468 58.9863 71.6961 59.0102C71.7989 59.0054 71.9014 59.0245 71.997 59.0663C72.0926 59.1082 72.1792 59.1718 72.2512 59.253C72.3231 59.3343 72.3788 59.4313 72.4146 59.5379C72.4504 59.6445 72.4656 59.7583 72.459 59.8717ZM72.2137 59.8717C72.238 59.52 72.0169 59.2755 71.6449 59.2457C71.5696 59.23 71.4921 59.2315 71.4174 59.2502C71.3426 59.2689 71.2721 59.3043 71.2102 59.3544C71.1483 59.4044 71.0963 59.4679 71.0575 59.541C71.0186 59.6141 70.9938 59.6952 70.9844 59.7793C70.9629 60.0774 71.1677 60.3755 71.5856 60.4053C71.6598 60.4193 71.7357 60.4159 71.8086 60.3954C71.8816 60.3749 71.9498 60.3378 72.0089 60.2864C72.0681 60.2351 72.1169 60.1706 72.1521 60.0971C72.1874 60.0236 72.2084 59.9428 72.2137 59.8598V59.8717Z" fill="#FAFAFA"/>
<path d="M74.8124 58.1756L74.7989 58.3694L73.6235 60.7543L73.3539 60.7334L74.5104 58.3843L73.2677 58.283L73.2326 58.7838L72.9873 58.7659L73.0385 58.0206L74.8124 58.1756Z" fill="#FAFAFA"/>
<path d="M78.265 58.4527L78.2515 58.6495L77.0762 61.0344L76.8066 61.0135L77.9604 58.6644L76.7176 58.563L76.6853 59.0639L76.4399 59.043L76.4885 58.2977L78.265 58.4527Z" fill="#FAFAFA"/>
<path d="M80.5166 60.5753C80.4869 61.0492 80.1041 61.3116 79.5272 61.2669C78.9503 61.2221 78.6133 60.8972 78.6457 60.4232C78.6544 60.2713 78.7095 60.1271 78.8021 60.0144C78.8947 59.9017 79.0192 59.8272 79.1552 59.8032C79.0448 59.7561 78.9515 59.6702 78.8896 59.5587C78.8278 59.4471 78.8008 59.3162 78.8128 59.1861C78.8425 58.7508 79.1956 58.5064 79.7078 58.5451C80.2201 58.5839 80.5436 58.888 80.5166 59.3232C80.5109 59.4547 80.466 59.5803 80.389 59.6806C80.3119 59.7809 80.207 59.8502 80.0906 59.8777C80.2224 59.9237 80.3363 60.0177 80.4136 60.1443C80.491 60.271 80.5273 60.4229 80.5166 60.5753ZM80.2632 60.5514C80.2848 60.2205 80.0421 59.9939 79.6135 59.9552C79.1849 59.9164 78.9207 60.1042 78.8991 60.4351C78.8775 60.766 79.1148 60.9926 79.5434 61.0314C79.972 61.0701 80.2416 60.8823 80.2632 60.5514ZM79.627 59.7376C80.0044 59.7674 80.2416 59.5975 80.2605 59.3083C80.2794 59.0191 80.0529 58.8015 79.6917 58.7747C79.3304 58.7479 79.0824 58.9088 79.0635 59.2069C79.0447 59.5051 79.2522 59.7107 79.627 59.7376Z" fill="#FAFAFA"/>
<path d="M82.8998 60.149C82.8405 61.0582 82.3606 61.4965 81.7028 61.4428C81.5031 61.4353 81.3087 61.3695 81.1394 61.252L81.2526 61.0374C81.3898 61.1401 81.5507 61.197 81.7163 61.2013C82.2366 61.2431 82.5951 60.9032 82.6437 60.1729C82.6437 60.1132 82.6437 60.0357 82.6437 59.9552C82.5643 60.0976 82.4491 60.2113 82.3121 60.2823C82.1751 60.3532 82.0224 60.3784 81.8727 60.3547C81.7694 60.3596 81.6664 60.3403 81.5704 60.2982C81.4744 60.256 81.3875 60.1918 81.3155 60.1099C81.2435 60.028 81.1879 59.9302 81.1524 59.8229C81.117 59.7156 81.1024 59.6012 81.1097 59.4872C81.1187 59.3718 81.1492 59.2597 81.1993 59.158C81.2495 59.0563 81.3181 58.9672 81.401 58.8963C81.4838 58.8255 81.579 58.7744 81.6806 58.7462C81.7822 58.7181 81.888 58.7136 81.9913 58.733C82.6464 58.7837 82.9618 59.3054 82.8998 60.149ZM82.5925 59.5886C82.6113 59.2905 82.4091 58.9924 81.9913 58.9655C81.918 58.9516 81.8428 58.9546 81.7706 58.9744C81.6984 58.9942 81.6306 59.0302 81.5716 59.0804C81.5126 59.1305 81.4637 59.1936 81.4278 59.2656C81.3919 59.3377 81.3699 59.4172 81.3632 59.4991C81.3389 59.8509 81.56 60.0954 81.932 60.1252C82.0081 60.1422 82.0866 60.1417 82.1625 60.1234C82.2384 60.1052 82.31 60.0698 82.3729 60.0193C82.4357 59.9689 82.4884 59.9045 82.5276 59.8304C82.5668 59.7562 82.5916 59.6739 82.6005 59.5886H82.5925Z" fill="#FAFAFA"/>
<path d="M85.4475 59.0311L85.2696 61.7141L85.0216 61.6962L85.1806 59.2666L84.6118 59.2189L84.628 58.9745L85.4475 59.0311Z" fill="#FAFAFA"/>
<path d="M87.7743 61.6605L87.7582 61.905L86.0625 61.7708V61.5741L87.1408 60.5665C87.432 60.2922 87.4967 60.1163 87.5102 59.9315C87.529 59.6334 87.3457 59.4158 86.971 59.386C86.8484 59.3682 86.7239 59.381 86.6063 59.4233C86.4888 59.4656 86.3813 59.5363 86.2916 59.6304L86.1353 59.4396C86.252 59.3183 86.3916 59.2273 86.5441 59.1732C86.6966 59.119 86.8581 59.1031 87.0168 59.1266C87.5075 59.1654 87.8013 59.4665 87.7717 59.9136C87.7555 60.17 87.6665 60.3936 87.3188 60.7185L86.4399 61.5473L87.7743 61.6605Z" fill="#FAFAFA"/>
<path d="M89.9763 61.3145C89.9466 61.7587 89.6312 62.0806 89.0489 62.0329C88.7282 62.0204 88.4242 61.872 88.1997 61.6186L88.3345 61.4099C88.4283 61.5216 88.5411 61.6117 88.6665 61.6752C88.7919 61.7386 88.9273 61.7741 89.0651 61.7796C89.464 61.8124 89.6986 61.6245 89.7228 61.2936C89.7471 60.9627 89.553 60.7451 89.1028 60.6974H88.9303L88.9438 60.4947L89.677 59.6213L88.4396 59.5229L88.4558 59.2784L90.0086 59.4036V59.5974L89.2619 60.4917C89.766 60.5633 90.0059 60.8852 89.9763 61.3145Z" fill="#FAFAFA"/>
<path d="M71.2098 62.569L71.1333 63.7316L90.5055 65.2897L90.582 64.1271L71.2098 62.569Z" fill="#FAFAFA"/>
<path d="M80.4969 65.65L80.4204 66.8125L90.3552 67.6116L90.4317 66.449L80.4969 65.65Z" fill="#FAFAFA"/>
<path d="M59.5077 47.8887L54.047 47.4485C53.3104 47.3891 52.6698 48.0012 52.6161 48.8156L52.368 52.5797C52.3143 53.3941 52.8678 54.1025 53.6043 54.1619L59.0651 54.6022C59.8016 54.6615 60.4422 54.0494 60.4959 53.235L60.7441 49.4709C60.7978 48.6565 60.2442 47.9481 59.5077 47.8887Z" fill="#455A64"/>
<path d="M52.3965 52.1927L52.4261 51.7634L56.6101 52.1002C56.7271 52.1136 56.8454 52.1008 56.9579 52.0626C57.0704 52.0245 57.1748 51.9617 57.2649 51.8781C57.3551 51.7945 57.4291 51.6917 57.4827 51.5758C57.5362 51.46 57.5682 51.3334 57.5767 51.2036C57.5852 51.0738 57.57 50.9435 57.5321 50.8203C57.4942 50.6972 57.4343 50.5837 57.3559 50.4866C57.2776 50.3895 57.1824 50.3108 57.0761 50.2551C56.9697 50.1994 56.8543 50.168 56.7368 50.1625L52.5528 49.8257L52.5798 49.3934L56.7664 49.7303C57.0939 49.7689 57.3949 49.9466 57.6061 50.2261C57.8173 50.5055 57.922 50.8647 57.8983 51.2279C57.8745 51.5911 57.724 51.9299 57.4786 52.1727C57.2333 52.4156 56.9122 52.5435 56.5831 52.5295L52.3965 52.1927Z" fill="#FFC300"/>
<path d="M57.7578 50.9995L57.729 51.4305L60.6003 51.6648L60.6291 51.2337L57.7578 50.9995Z" fill="#FFC300"/>
<path d="M74.9436 43.5732L54.0391 41.8878L53.9083 43.8709L74.8129 45.5563L74.9436 43.5732Z" fill="#FAFAFA"/>
<path d="M102.715 35.0902C102.474 35.3612 102.288 35.686 102.171 36.0429C102.053 36.3998 102.006 36.7804 102.033 37.1591C102.092 37.9168 102.315 38.6478 102.682 39.2905" fill="#212121"/>
<path d="M108.598 46.7431L108.965 37.4034L105.576 34.5654L102.498 36.2289C102.498 36.2289 102.395 40.5037 102.498 42.3579C102.6 44.2122 104.29 44.4089 104.29 44.4089C104.29 44.4089 104.242 45.4314 104.188 46.4957C104.158 47.1354 104.355 47.7628 104.739 48.2429C105.123 48.7229 105.662 49.0172 106.239 49.0624C106.533 49.085 106.827 49.0426 107.105 48.9376C107.384 48.8327 107.64 48.6674 107.86 48.4513C108.08 48.2353 108.258 47.9729 108.385 47.6796C108.512 47.3862 108.584 47.0679 108.598 46.7431Z" fill="#FFBE9D"/>
<path d="M103.049 39.3473C103.049 39.3944 103.061 39.4405 103.085 39.4797C103.109 39.519 103.143 39.5495 103.182 39.5676C103.221 39.5856 103.265 39.5904 103.307 39.5812C103.348 39.572 103.387 39.5492 103.417 39.5159C103.447 39.4825 103.468 39.44 103.476 39.3938C103.484 39.3475 103.48 39.2996 103.464 39.256C103.447 39.2124 103.42 39.1752 103.384 39.149C103.349 39.1228 103.307 39.1088 103.264 39.1088C103.236 39.1088 103.208 39.1149 103.182 39.1269C103.156 39.1389 103.132 39.1565 103.112 39.1786C103.092 39.2008 103.076 39.2271 103.065 39.256C103.054 39.2849 103.049 39.3159 103.049 39.3473Z" fill="#212121"/>
<path d="M102.629 39.0877C102.656 39.1175 102.815 38.9684 103.044 38.9535C103.273 38.9386 103.448 39.0638 103.473 39.031C103.497 38.9982 103.456 38.9595 103.381 38.8999C103.279 38.8261 103.158 38.7915 103.036 38.8015C102.914 38.8078 102.799 38.8593 102.707 38.9476C102.637 39.0132 102.615 39.0728 102.629 39.0877Z" fill="#212121"/>
<path d="M105.545 39.347C105.545 39.4095 105.567 39.4694 105.607 39.5136C105.647 39.5577 105.701 39.5825 105.758 39.5825C105.801 39.5831 105.843 39.5696 105.879 39.5436C105.915 39.5176 105.943 39.4804 105.959 39.4367C105.976 39.393 105.98 39.3448 105.972 39.2983C105.964 39.2517 105.943 39.209 105.913 39.1754C105.883 39.1419 105.844 39.1191 105.802 39.11C105.76 39.1009 105.716 39.1059 105.677 39.1243C105.637 39.1427 105.604 39.1738 105.58 39.2134C105.557 39.2531 105.544 39.2996 105.545 39.347Z" fill="#212121"/>
<path d="M105.189 39.0877C105.216 39.1175 105.375 38.9685 105.605 38.9536C105.834 38.9387 106.009 39.0639 106.033 39.0311C106.057 38.9983 106.017 38.9596 105.941 38.8999C105.839 38.8263 105.718 38.7918 105.596 38.8016C105.474 38.8084 105.358 38.8597 105.265 38.9476C105.197 39.0132 105.176 39.0728 105.189 39.0877Z" fill="#212121"/>
<path d="M105.117 41.4874C104.764 41.6844 104.388 41.8268 104 41.9107C104.086 42.0388 104.208 42.1319 104.346 42.1756C104.485 42.2193 104.632 42.211 104.766 42.1522C104.83 42.1365 104.89 42.1063 104.943 42.0637C104.995 42.021 105.04 41.9668 105.073 41.9044C105.105 41.842 105.126 41.7727 105.134 41.701C105.141 41.6292 105.136 41.5565 105.117 41.4874Z" fill="#FAFAFA"/>
<path d="M104.291 44.4089C105.088 44.3728 105.859 44.0852 106.512 43.5802C106.512 43.5802 106.008 44.9425 104.329 44.865L104.291 44.4089Z" fill="#EB996E"/>
<path d="M104.353 41.2551C104.23 41.2218 104.103 41.2048 103.976 41.2044C103.917 41.2044 103.86 41.2044 103.847 41.1448C103.839 41.0729 103.851 41.0002 103.882 40.9361C103.93 40.7691 103.984 40.5933 104.038 40.4084C104.149 40.0298 104.243 39.69 104.308 39.4396C104.352 39.3074 104.381 39.1689 104.391 39.0282C104.329 39.1506 104.28 39.2807 104.246 39.4157C104.165 39.6602 104.06 40.012 103.949 40.3756C103.898 40.5635 103.847 40.7393 103.798 40.9093C103.765 40.9927 103.757 41.0859 103.777 41.1746C103.784 41.1977 103.798 41.2182 103.814 41.2343C103.831 41.2505 103.852 41.2617 103.874 41.267C103.907 41.2725 103.94 41.2725 103.973 41.267C104.1 41.2825 104.228 41.2784 104.353 41.2551Z" fill="#212121"/>
<path d="M108.718 40.7245C108.691 40.4157 108.723 40.1041 108.81 39.8093C108.853 39.662 108.932 39.5307 109.038 39.4293C109.144 39.3279 109.273 39.2604 109.411 39.2339C109.571 39.2252 109.728 39.2808 109.853 39.3904C109.979 39.5001 110.064 39.6563 110.093 39.8301C110.113 40.008 110.084 40.1884 110.01 40.3479C109.936 40.5074 109.82 40.6386 109.678 40.7245C109.534 40.8059 109.376 40.8506 109.214 40.8552C109.053 40.8599 108.893 40.8243 108.745 40.7513" fill="#FFBE9D"/>
<path d="M109.208 40.4532C109.208 40.4323 109.297 40.48 109.416 40.4382C109.49 40.4101 109.554 40.3569 109.599 40.2863C109.644 40.2156 109.667 40.1311 109.667 40.0447C109.674 40.0012 109.672 39.9564 109.662 39.9136C109.652 39.8708 109.633 39.8311 109.607 39.7973C109.555 39.7534 109.49 39.7322 109.424 39.7377C109.3 39.7377 109.211 39.7854 109.203 39.7645C109.195 39.7437 109.259 39.6781 109.41 39.6304C109.457 39.6182 109.505 39.6173 109.551 39.6275C109.598 39.6378 109.642 39.6591 109.68 39.69C109.724 39.7364 109.758 39.794 109.778 39.8578C109.798 39.9216 109.804 39.9898 109.796 40.0567C109.789 40.1836 109.746 40.3048 109.672 40.4025C109.608 40.4817 109.519 40.5325 109.424 40.5456C109.27 40.5635 109.192 40.4651 109.208 40.4532Z" fill="#EB996E"/>
<path d="M102.522 35.272C101.778 36.2945 102.77 36.9385 103.264 37.3588C103.644 37.6867 104.765 38.5512 105.749 38.1428C105.402 37.6271 105.005 37.4005 104.852 36.9086C105.253 37.5347 105.677 38.0087 106.367 38.0862C106.229 37.642 106.035 36.7387 106.183 36.7029C106.367 38.4677 107.863 39.9523 108.893 39.3859C109.086 38.8308 109.158 38.2332 109.102 37.6416C109.047 37.05 108.866 36.4812 108.575 35.9815C108.276 35.4871 107.887 35.0668 107.434 34.747C106.981 34.4273 106.472 34.2153 105.941 34.1243C105.331 34.0217 104.708 34.0701 104.117 34.266C103.525 34.4619 102.981 34.8004 102.522 35.2571" fill="#212121"/>
<path d="M109.589 40.8944C109.589 40.8765 109.715 41.0106 109.664 41.264C109.648 41.3373 109.618 41.4056 109.575 41.464C109.532 41.5223 109.478 41.5691 109.416 41.6009C109.339 41.6396 109.255 41.6579 109.171 41.6543C109.087 41.6507 109.005 41.6252 108.931 41.58C108.858 41.532 108.797 41.4666 108.75 41.3887C108.703 41.3109 108.673 41.2224 108.661 41.1299C108.645 40.9813 108.679 40.8312 108.758 40.7096C108.893 40.5068 109.044 40.486 109.044 40.5009C109.044 40.5158 108.934 40.5843 108.842 40.7692C108.79 40.8724 108.772 40.9926 108.791 41.109C108.801 41.1779 108.824 41.2435 108.859 41.3016C108.894 41.3597 108.939 41.4089 108.993 41.4459C109.048 41.4792 109.108 41.4989 109.171 41.5035C109.233 41.5082 109.296 41.4977 109.354 41.4727C109.402 41.4507 109.445 41.4178 109.481 41.3763C109.517 41.3347 109.544 41.2853 109.562 41.2312C109.59 41.122 109.599 41.0075 109.589 40.8944Z" fill="#FFC300"/>
<path d="M97.9341 56.2528L100.463 55.6715L101.231 60.3756C100.581 62.7865 100.041 65.2321 99.6136 67.7031L105.544 71.7961L106.458 69.8763L107.922 71.4145L114.233 67.7031C113.454 63.2315 111.486 62.0629 111.486 61.3355C111.486 59.2488 111.216 61.2759 112.799 54.3628C114.381 47.4497 108.607 46.7432 108.607 46.7432C108.607 46.7432 108.736 47.709 104.143 46.7879C102.46 46.451 95.7451 50.3503 95.7451 50.3503L97.9341 56.2528Z" fill="#FFC300"/>
<path d="M104.135 46.788C104.135 46.788 104.081 51.9035 105.184 51.5577C106.286 51.2119 108.508 49.0267 108.599 46.7313L104.135 46.788Z" fill="#FFBE9D"/>
<path d="M104.415 55.752C104.402 55.146 104.433 54.5398 104.51 53.9395C104.542 53.3368 104.621 52.7383 104.747 52.1509C104.76 52.758 104.728 53.3652 104.65 53.9663C104.618 54.5679 104.54 55.1654 104.415 55.752Z" fill="#212121"/>
<path d="M105.119 55.3376C105.037 54.8592 105.002 54.3725 105.014 53.8858C104.98 53.3999 104.991 52.9114 105.049 52.4281C105.13 52.9076 105.165 53.3952 105.154 53.8829C105.191 54.3677 105.179 54.8556 105.119 55.3376Z" fill="#212121"/>
<path d="M104.13 56.2528C104.092 56.2528 104.065 56.1217 104.13 55.9756C104.195 55.8295 104.3 55.7639 104.324 55.7967C104.348 55.8295 104.305 55.9249 104.259 56.0382C104.213 56.1515 104.17 56.2558 104.13 56.2528Z" fill="#212121"/>
<path d="M104.281 56.2528C104.243 56.2528 104.23 56.1455 104.249 56.0292C104.268 55.913 104.319 55.8295 104.357 55.8384C104.394 55.8474 104.408 55.9457 104.389 56.062C104.37 56.1783 104.319 56.2617 104.281 56.2528Z" fill="#212121"/>
<path d="M104.424 56.2558C104.386 56.2558 104.345 56.1694 104.335 56.0531C104.324 55.9368 104.348 55.8414 104.389 55.8385C104.429 55.8355 104.467 55.9249 104.475 56.0382C104.483 56.1515 104.467 56.2498 104.424 56.2558Z" fill="#212121"/>
<path d="M104.657 56.3363C104.617 56.3363 104.587 56.1872 104.517 56.0382C104.447 55.8891 104.366 55.758 104.393 55.7222C104.42 55.6864 104.563 55.7759 104.646 55.9726C104.73 56.1694 104.695 56.3393 104.657 56.3363Z" fill="#212121"/>
<path d="M105.146 55.7968C105.111 55.8117 105.038 55.6835 105.038 55.4987C105.038 55.3138 105.111 55.2006 105.146 55.2006C105.181 55.2006 105.178 55.3407 105.178 55.4987C105.178 55.6567 105.184 55.7819 105.146 55.7968Z" fill="#212121"/>
<path d="M105.292 55.7131C105.254 55.7131 105.214 55.6177 105.203 55.4925C105.192 55.3673 105.203 55.26 105.254 55.257C105.305 55.254 105.332 55.3524 105.343 55.4776C105.354 55.6028 105.33 55.7101 105.292 55.7131Z" fill="#212121"/>
<path d="M105.521 55.6715C105.491 55.6983 105.407 55.6357 105.335 55.5313C105.262 55.427 105.227 55.3227 105.259 55.2988C105.292 55.275 105.372 55.3346 105.445 55.4359C105.518 55.5373 105.545 55.6446 105.521 55.6715Z" fill="#212121"/>
<path d="M105.596 55.588C105.561 55.6058 105.494 55.5283 105.408 55.4449C105.321 55.3614 105.246 55.2988 105.259 55.2571C105.273 55.2153 105.394 55.2213 105.502 55.3286C105.61 55.4359 105.631 55.5641 105.596 55.588Z" fill="#212121"/>
<path d="M103.798 47.3514C103.798 47.3335 103.878 47.2888 103.973 47.3842C103.994 47.4111 104.009 47.4427 104.018 47.4768C104.027 47.5109 104.03 47.5467 104.025 47.5819C104.021 47.617 104.01 47.6508 103.993 47.6808C103.975 47.7109 103.953 47.7366 103.926 47.7562C103.899 47.7758 103.869 47.7889 103.837 47.7945C103.806 47.8002 103.773 47.7984 103.742 47.7891C103.711 47.7799 103.682 47.7635 103.657 47.7409C103.633 47.7184 103.612 47.6903 103.598 47.6584C103.585 47.619 103.582 47.5767 103.587 47.5352C103.592 47.4937 103.606 47.4542 103.628 47.42C103.706 47.3067 103.8 47.3335 103.795 47.3514C103.789 47.3693 103.741 47.3961 103.714 47.4766C103.687 47.5571 103.714 47.6644 103.825 47.6495C103.935 47.6346 103.943 47.5303 103.9 47.4557C103.857 47.3812 103.8 47.3752 103.798 47.3514Z" fill="#212121"/>
<path d="M103.905 48.3141C103.881 48.3469 103.805 48.3141 103.733 48.2723C103.66 48.2306 103.619 48.1412 103.641 48.1054C103.663 48.0696 103.741 48.0875 103.814 48.1471C103.886 48.2067 103.927 48.2783 103.905 48.3141Z" fill="#212121"/>
<path d="M103.976 48.5169C104.008 48.5438 103.976 48.6481 103.868 48.6928C103.76 48.7375 103.671 48.6928 103.679 48.6481C103.687 48.6034 103.749 48.5795 103.817 48.5497C103.884 48.5199 103.946 48.4901 103.976 48.5169Z" fill="#212121"/>
<path d="M103.981 49.0207C104.011 49.0475 103.981 49.125 103.941 49.1936C103.9 49.2621 103.822 49.2979 103.793 49.2681C103.763 49.2383 103.779 49.1638 103.833 49.0952C103.887 49.0266 103.949 49.0058 103.981 49.0207Z" fill="#212121"/>
<path d="M103.865 49.5663C103.865 49.5484 103.973 49.5066 104.1 49.6348C104.136 49.6724 104.161 49.7201 104.174 49.7726C104.187 49.8252 104.186 49.8806 104.173 49.9329C104.155 50.0018 104.117 50.0626 104.066 50.1065C104.014 50.1504 103.952 50.1752 103.887 50.1774C103.823 50.1721 103.763 50.1444 103.714 50.0983C103.666 50.0521 103.632 49.99 103.617 49.921C103.606 49.8635 103.611 49.8033 103.633 49.7495C103.655 49.6957 103.692 49.6513 103.739 49.6229C103.895 49.5275 104.008 49.6229 103.981 49.6378C103.954 49.6527 103.884 49.6378 103.795 49.7123C103.772 49.7318 103.754 49.7589 103.745 49.7898C103.736 49.8208 103.736 49.8541 103.744 49.8852C103.755 49.9222 103.776 49.9547 103.804 49.9786C103.832 50.0025 103.865 50.0167 103.901 50.0194C103.934 50.0169 103.967 50.0043 103.994 49.9831C104.022 49.9618 104.044 49.9326 104.058 49.8986C104.071 49.8647 104.077 49.8272 104.073 49.7901C104.069 49.7531 104.056 49.718 104.035 49.6885C103.954 49.602 103.863 49.602 103.865 49.5663Z" fill="#212121"/>
<path d="M104.167 50.4337C104.186 50.4725 104.127 50.544 104.062 50.6245C103.997 50.705 103.943 50.7795 103.906 50.7646C103.868 50.7497 103.873 50.6305 103.957 50.5231C104.041 50.4158 104.151 50.395 104.167 50.4337Z" fill="#212121"/>
<path d="M104.319 50.9732C104.354 50.9881 104.348 51.1074 104.265 51.2147C104.181 51.322 104.073 51.3429 104.054 51.3071C104.035 51.2713 104.095 51.1938 104.159 51.1133C104.224 51.0328 104.281 50.9583 104.319 50.9732Z" fill="#212121"/>
<path d="M104.4 51.8469C104.362 51.8469 104.321 51.7515 104.313 51.6233C104.305 51.4951 104.313 51.3938 104.364 51.3878C104.416 51.3819 104.443 51.4832 104.451 51.6114C104.459 51.7396 104.44 51.8439 104.4 51.8469Z" fill="#212121"/>
<path d="M105.709 51.9869C105.69 52.0227 105.614 52.0168 105.541 51.9869C105.469 51.9571 105.425 51.8737 105.444 51.8349C105.463 51.7962 105.539 51.8051 105.612 51.8498C105.684 51.8945 105.727 51.9333 105.709 51.9869Z" fill="#212121"/>
<path d="M106.165 51.3906C106.192 51.4204 106.146 51.5188 106.065 51.6112C105.984 51.7036 105.892 51.7543 105.865 51.7245C105.838 51.6947 105.882 51.5963 105.965 51.5039C106.049 51.4115 106.135 51.3638 106.165 51.3906Z" fill="#212121"/>
<path d="M106.537 51.0567C106.537 51.0328 106.607 51.0209 106.71 51.0239H106.723L106.742 51.0418C106.766 51.068 106.784 51.1007 106.794 51.1366C106.804 51.1726 106.806 51.2107 106.799 51.2475C106.791 51.2944 106.77 51.3373 106.738 51.3696C106.707 51.4019 106.666 51.4218 106.623 51.4263C106.578 51.4313 106.532 51.4198 106.492 51.3935C106.453 51.3671 106.422 51.3274 106.405 51.2803C106.391 51.243 106.387 51.2019 106.395 51.1624C106.403 51.123 106.421 51.0871 106.448 51.0597C106.537 50.9702 106.621 51.0149 106.61 51.0328C106.599 51.0507 106.556 51.0626 106.526 51.1282C106.519 51.1428 106.515 51.1592 106.515 51.1759C106.515 51.1926 106.519 51.209 106.526 51.2236C106.536 51.2394 106.549 51.2522 106.565 51.2605C106.581 51.2689 106.598 51.2726 106.615 51.2713C106.672 51.2713 106.699 51.161 106.669 51.1223L106.702 51.1402C106.596 51.1103 106.534 51.0925 106.537 51.0567Z" fill="#212121"/>
<path d="M106.922 50.9762C106.884 50.9762 106.868 50.8659 106.89 50.7527C106.911 50.6394 106.96 50.5529 106.997 50.5589C107.035 50.5648 107.049 50.6692 107.027 50.7825C107.005 50.8957 106.96 50.9852 106.922 50.9762Z" fill="#212121"/>
<path d="M107.512 50.5172C107.499 50.556 107.41 50.55 107.316 50.5172C107.221 50.4844 107.159 50.401 107.175 50.3622C107.192 50.3234 107.281 50.3294 107.372 50.3622C107.464 50.395 107.529 50.4785 107.512 50.5172Z" fill="#212121"/>
<path d="M107.58 49.9508C107.596 49.9508 107.594 50.0045 107.626 50.0432C107.658 50.082 107.699 50.0909 107.728 50.0432C107.758 49.9955 107.728 49.9597 107.685 49.9419C107.642 49.924 107.604 49.9419 107.588 49.9419C107.572 49.9419 107.588 49.8584 107.68 49.8375C107.708 49.8316 107.738 49.834 107.765 49.8444C107.793 49.8549 107.817 49.8731 107.836 49.8971C107.861 49.929 107.876 49.969 107.878 50.0109C107.881 50.0529 107.871 50.0945 107.85 50.1297C107.831 50.1665 107.802 50.1957 107.767 50.2129C107.732 50.2301 107.693 50.2344 107.656 50.2251C107.628 50.2172 107.602 50.2016 107.581 50.1797C107.561 50.1577 107.545 50.1302 107.537 50.0999C107.51 49.9866 107.567 49.9359 107.58 49.9508Z" fill="#212121"/>
<path d="M107.993 49.4798C107.955 49.4798 107.909 49.45 107.888 49.3814C107.866 49.3128 107.888 49.2473 107.915 49.2324C107.942 49.2175 107.998 49.2622 108.02 49.3307C108.041 49.3993 108.028 49.4679 107.993 49.4798Z" fill="#212121"/>
<path d="M108.378 49.0624C108.36 49.0981 108.284 49.0922 108.211 49.0445C108.138 48.9968 108.095 48.9312 108.117 48.8954C108.138 48.8597 108.209 48.8656 108.281 48.9103C108.354 48.955 108.397 49.0236 108.378 49.0624Z" fill="#212121"/>
<path d="M108.642 48.4363C108.658 48.478 108.593 48.5466 108.502 48.5913C108.41 48.636 108.318 48.642 108.302 48.5913C108.286 48.5406 108.351 48.484 108.442 48.4393C108.534 48.3946 108.626 48.4095 108.642 48.4363Z" fill="#212121"/>
<path d="M108.764 47.6881C108.764 47.6732 108.815 47.6166 108.907 47.6702C108.933 47.687 108.955 47.7108 108.971 47.7394C108.987 47.768 108.996 47.8006 108.998 47.8342C108.999 47.8785 108.988 47.922 108.965 47.9584C108.942 47.9949 108.909 48.0223 108.871 48.0369C108.835 48.0543 108.794 48.0582 108.755 48.048C108.716 48.0378 108.682 48.014 108.656 47.9802C108.636 47.954 108.623 47.9226 108.618 47.8892C108.613 47.8557 108.616 47.8214 108.626 47.7895C108.661 47.6851 108.737 47.6792 108.739 47.7C108.742 47.7209 108.718 47.7537 108.723 47.8103C108.729 47.867 108.761 47.9176 108.82 47.8938C108.88 47.8699 108.88 47.8103 108.845 47.7596C108.809 47.709 108.78 47.709 108.764 47.6881Z" fill="#212121"/>
<path d="M109.133 47.0354C109.133 47.0771 109.073 47.1308 108.979 47.1546C108.885 47.1785 108.804 47.1546 108.796 47.1218C108.787 47.089 108.855 47.0264 108.949 47.0026C109.044 46.9787 109.124 46.9936 109.133 47.0354Z" fill="#212121"/>
<path d="M108.756 46.8177L108.904 46.6925L108.756 46.8177Z" fill="#212121"/>
<path d="M96.5112 51.0686C96.4761 51.0686 96.4626 50.9821 96.4869 50.9046C96.5112 50.8271 96.557 50.7764 96.5921 50.7884C96.6271 50.8003 96.6406 50.8748 96.619 50.9523C96.5974 51.0298 96.5489 51.0924 96.5112 51.0686Z" fill="#212121"/>
<path d="M96.8343 51.5009C96.8343 51.4831 96.8828 51.4264 96.9799 51.4741C97.0133 51.4905 97.0417 51.5172 97.0616 51.5511C97.0815 51.585 97.0921 51.6245 97.0921 51.6649C97.0921 51.7053 97.0815 51.7448 97.0616 51.7787C97.0417 51.8126 97.0133 51.8393 96.9799 51.8557C96.9441 51.8778 96.9029 51.8868 96.8622 51.8814C96.8216 51.8761 96.7835 51.8566 96.7534 51.8259C96.7311 51.8019 96.7145 51.7722 96.7051 51.7395C96.6957 51.7067 96.6938 51.6719 96.6995 51.6381C96.7184 51.5218 96.7965 51.5039 96.8019 51.5218C96.8073 51.5397 96.7858 51.5814 96.8019 51.6411C96.8181 51.7007 96.8558 51.7543 96.9232 51.7186C96.9906 51.6828 96.9772 51.6172 96.9232 51.5665C96.8693 51.5158 96.8424 51.5218 96.8343 51.5009Z" fill="#212121"/>
<path d="M97.2359 52.4759C97.2197 52.5146 97.1361 52.5146 97.0472 52.4759C96.9582 52.4371 96.9016 52.3715 96.9151 52.3328C96.9285 52.294 97.0148 52.294 97.1038 52.3328C97.1927 52.3715 97.2493 52.4371 97.2359 52.4759Z" fill="#212121"/>
<path d="M97.3355 53.0719C97.3221 53.1136 97.2574 53.1255 97.1873 53.1017C97.1172 53.0778 97.0714 53.0242 97.0821 52.9824C97.0929 52.9407 97.1603 52.9288 97.2304 52.9556C97.3005 52.9824 97.3463 53.0331 97.3355 53.0719Z" fill="#212121"/>
<path d="M97.5004 53.4774C97.5327 53.4983 97.5246 53.5847 97.4788 53.6682C97.433 53.7517 97.371 53.8053 97.3386 53.7815C97.3063 53.7576 97.3144 53.6742 97.3575 53.5907C97.4006 53.5072 97.4572 53.4774 97.5004 53.4774Z" fill="#212121"/>
<path d="M97.5973 53.8918C97.5785 53.8918 97.6432 53.7815 97.7807 53.8233C97.82 53.8355 97.8561 53.8582 97.8857 53.8894C97.9153 53.9206 97.9375 53.9593 97.9505 54.0021C97.966 54.0622 97.9601 54.1266 97.9341 54.182C97.908 54.2375 97.8637 54.2798 97.8103 54.3002C97.7619 54.3218 97.7089 54.3274 97.6577 54.3162C97.6065 54.3051 97.5593 54.2778 97.5219 54.2376C97.4917 54.1992 97.4751 54.1499 97.4751 54.099C97.4751 54.0481 97.4917 53.9989 97.5219 53.9604C97.5329 53.9479 97.5461 53.9379 97.5607 53.9311C97.5753 53.9243 97.591 53.9208 97.6068 53.9208C97.6226 53.9208 97.6383 53.9243 97.6529 53.9311C97.6674 53.9379 97.6806 53.9479 97.6917 53.9604C97.7214 53.9992 97.7079 54.029 97.6917 54.029C97.6755 54.029 97.6701 54.029 97.6513 54.0111C97.6324 53.9932 97.5946 54.0111 97.592 54.0349C97.5858 54.0534 97.5848 54.0736 97.5891 54.0927C97.5935 54.1119 97.6029 54.1291 97.6162 54.1422C97.6367 54.1584 97.6606 54.1685 97.6856 54.1716C97.7106 54.1748 97.7359 54.1708 97.7591 54.1601C97.8696 54.1154 97.8238 53.9783 97.7429 53.9336C97.662 53.8889 97.6108 53.9097 97.5973 53.8918Z" fill="#212121"/>
<path d="M97.997 54.6697C98.024 54.6995 97.997 54.7681 97.9485 54.8218C97.9 54.8754 97.8326 54.8874 97.8056 54.8575C97.7786 54.8277 97.8056 54.7562 97.8541 54.7055C97.9027 54.6548 97.962 54.631 97.997 54.6697Z" fill="#212121"/>
<path d="M98.1422 55.1825C98.1719 55.2123 98.1422 55.2869 98.0964 55.3495C98.0506 55.4121 97.9751 55.4419 97.9454 55.4121C97.9158 55.3823 97.9454 55.3077 97.994 55.2451C98.0425 55.1825 98.1153 55.1527 98.1422 55.1825Z" fill="#212121"/>
<path d="M100.895 68.4571C100.862 68.478 100.79 68.4095 100.738 68.3021C100.687 68.1948 100.668 68.0935 100.701 68.0726C100.733 68.0517 100.806 68.1203 100.86 68.2276C100.914 68.3349 100.93 68.4363 100.895 68.4571Z" fill="#212121"/>
<path d="M101.129 68.4572C101.094 68.4751 101.029 68.4036 100.986 68.2963C100.943 68.1889 100.938 68.0906 100.986 68.0727C101.035 68.0548 101.086 68.1263 101.129 68.2337C101.172 68.341 101.164 68.4394 101.129 68.4572Z" fill="#212121"/>
<path d="M101.46 68.651C101.46 68.6688 101.46 68.7016 101.46 68.7463C101.46 68.7911 101.501 68.809 101.539 68.7851C101.576 68.7613 101.574 68.7285 101.539 68.6897C101.504 68.651 101.477 68.6569 101.466 68.636C101.455 68.6152 101.498 68.5615 101.584 68.5913C101.615 68.6018 101.641 68.6219 101.661 68.6493C101.681 68.6766 101.693 68.7099 101.696 68.7448C101.698 68.7797 101.691 68.8146 101.676 68.8452C101.66 68.8757 101.637 68.9005 101.609 68.9163C101.58 68.9395 101.545 68.9521 101.509 68.9521C101.473 68.9521 101.438 68.9395 101.409 68.9163C101.389 68.8963 101.374 68.8711 101.365 68.843C101.356 68.8149 101.354 68.7847 101.358 68.7553C101.388 68.645 101.455 68.6301 101.46 68.651Z" fill="#212121"/>
<path d="M102.291 68.8449C102.315 68.8777 102.264 68.9641 102.178 69.0357C102.092 69.1072 102.005 69.137 101.981 69.1012C101.957 69.0655 102.008 68.982 102.094 68.9105C102.181 68.8389 102.27 68.8091 102.291 68.8449Z" fill="#212121"/>
<path d="M102.563 69.1429C102.579 69.1817 102.541 69.2413 102.479 69.2771C102.417 69.3128 102.347 69.3099 102.331 69.2771C102.315 69.2443 102.35 69.1787 102.415 69.1429C102.479 69.1071 102.547 69.1071 102.563 69.1429Z" fill="#212121"/>
<path d="M102.946 69.6169C102.905 69.6169 102.868 69.5603 102.854 69.4768C102.841 69.3933 102.868 69.3218 102.905 69.3158C102.943 69.3099 102.984 69.3725 102.994 69.4559C103.005 69.5394 102.984 69.611 102.946 69.6169Z" fill="#212121"/>
<path d="M103.563 69.6079C103.563 69.6258 103.547 69.6646 103.563 69.7242C103.579 69.7838 103.614 69.8255 103.674 69.7868C103.733 69.748 103.717 69.6914 103.674 69.6497C103.631 69.6079 103.587 69.6199 103.577 69.602C103.566 69.5841 103.609 69.5185 103.711 69.5483C103.741 69.5572 103.769 69.5745 103.791 69.5985C103.813 69.6225 103.83 69.6525 103.838 69.6854C103.847 69.7295 103.844 69.7756 103.828 69.8173C103.812 69.8591 103.785 69.8943 103.75 69.9183C103.716 69.9422 103.675 69.9536 103.634 69.9508C103.594 69.9481 103.555 69.9314 103.523 69.9031C103.5 69.8804 103.482 69.8514 103.472 69.819C103.462 69.7865 103.46 69.7518 103.466 69.7182C103.48 69.602 103.558 69.5751 103.563 69.6079Z" fill="#212121"/>
<path d="M104.297 69.921C104.324 69.9537 104.283 70.0372 104.208 70.1088C104.132 70.1803 104.052 70.2131 104.027 70.1803C104.003 70.1475 104.041 70.064 104.116 69.9925C104.192 69.921 104.273 69.8882 104.297 69.921Z" fill="#212121"/>
<path d="M104.782 70.2399C104.809 70.2698 104.766 70.3622 104.666 70.4128C104.566 70.4635 104.472 70.4367 104.469 70.392C104.467 70.3473 104.531 70.3085 104.607 70.2698C104.682 70.231 104.752 70.2072 104.782 70.2399Z" fill="#212121"/>
<path d="M105.148 70.8213C105.11 70.8362 105.062 70.7885 105.04 70.7169C105.018 70.6454 105.04 70.5768 105.067 70.5649C105.094 70.553 105.153 70.5977 105.175 70.6692C105.196 70.7408 105.183 70.8094 105.148 70.8213Z" fill="#212121"/>
<path d="M105.564 70.5471C105.548 70.5471 105.58 70.4577 105.683 70.4637C105.714 70.4663 105.743 70.4783 105.768 70.4983C105.794 70.5182 105.813 70.5454 105.826 70.5769C105.841 70.6197 105.841 70.667 105.828 70.7103C105.814 70.7535 105.786 70.7898 105.75 70.8124C105.715 70.8378 105.673 70.8485 105.631 70.8424C105.59 70.8364 105.552 70.8142 105.524 70.7797C105.505 70.7516 105.494 70.7183 105.491 70.6834C105.489 70.6486 105.495 70.6138 105.51 70.5829C105.561 70.4815 105.648 70.5024 105.64 70.5233C105.632 70.5441 105.607 70.568 105.605 70.6217C105.602 70.6753 105.626 70.7111 105.677 70.6783C105.729 70.6455 105.71 70.6038 105.661 70.571C105.613 70.5382 105.58 70.562 105.564 70.5471Z" fill="#212121"/>
<path d="M105.951 70.1296C105.919 70.1534 105.862 70.1296 105.825 70.067C105.787 70.0044 105.784 69.9388 105.825 69.915C105.865 69.8911 105.914 69.915 105.951 69.9776C105.989 70.0402 105.984 70.1058 105.951 70.1296Z" fill="#212121"/>
<path d="M106.143 69.7868C106.116 69.8166 106.059 69.8046 106.016 69.7569C105.973 69.7092 105.96 69.6467 105.987 69.6168C106.014 69.587 106.073 69.5989 106.116 69.6466C106.159 69.6943 106.17 69.7569 106.143 69.7868Z" fill="#212121"/>
<path d="M106.353 69.1309C106.334 69.1309 106.375 69.0504 106.458 69.0832C106.483 69.0928 106.505 69.1103 106.521 69.1337C106.537 69.1571 106.546 69.1852 106.547 69.2144C106.545 69.2509 106.532 69.2856 106.511 69.3137C106.489 69.3417 106.461 69.3618 106.429 69.371C106.396 69.3802 106.363 69.378 106.332 69.3649C106.301 69.3518 106.274 69.3284 106.256 69.2979C106.245 69.2745 106.239 69.2484 106.239 69.2219C106.239 69.1953 106.245 69.1692 106.256 69.1458C106.288 69.0683 106.348 69.0654 106.353 69.0832C106.358 69.1011 106.353 69.1339 106.353 69.1727C106.354 69.1896 106.361 69.2056 106.372 69.2174C106.372 69.2174 106.385 69.2174 106.402 69.2174C106.41 69.2184 106.418 69.2184 106.426 69.2174C106.426 69.2174 106.426 69.1965 106.426 69.1846C106.426 69.1727 106.375 69.1458 106.353 69.1309Z" fill="#212121"/>
<path d="M106.785 69.617C106.765 69.6077 106.749 69.5907 106.74 69.5692C106.731 69.5477 106.73 69.5233 106.736 69.5008C106.737 69.4891 106.74 69.4778 106.746 69.4675C106.751 69.4572 106.757 69.4482 106.766 69.4409C106.774 69.4337 106.784 69.4284 106.794 69.4253C106.804 69.4223 106.815 69.4216 106.825 69.4232C106.845 69.4313 106.861 69.4477 106.871 69.4689C106.88 69.4901 106.881 69.5144 106.874 69.5365C106.871 69.56 106.86 69.5814 106.844 69.5964C106.827 69.6113 106.806 69.6187 106.785 69.617Z" fill="#212121"/>
<path d="M106.982 69.8732C106.967 69.8568 106.956 69.8364 106.95 69.8139C106.945 69.7914 106.944 69.7677 106.949 69.7451C106.949 69.6974 106.982 69.6467 107.02 69.6377C107.057 69.6288 107.103 69.6884 107.09 69.7719C107.076 69.8554 107.011 69.9001 106.982 69.8732Z" fill="#212121"/>
<path d="M107.254 70.2192C107.239 70.2369 107.22 70.2496 107.199 70.2559C107.178 70.2622 107.156 70.2619 107.135 70.255C107.089 70.255 107.046 70.2162 107.038 70.1745C107.03 70.1328 107.086 70.0851 107.162 70.1C107.237 70.1149 107.272 70.1715 107.254 70.2192Z" fill="#212121"/>
<path d="M107.475 70.5112C107.461 70.4963 107.496 70.4367 107.58 70.4516C107.606 70.4574 107.63 70.4703 107.65 70.489C107.671 70.5078 107.686 70.5318 107.696 70.5589C107.706 70.597 107.704 70.6375 107.691 70.6743C107.677 70.711 107.653 70.7419 107.623 70.762C107.592 70.7821 107.556 70.7903 107.52 70.7854C107.485 70.7805 107.452 70.7627 107.426 70.7348C107.411 70.7098 107.402 70.6802 107.402 70.6498C107.402 70.6195 107.411 70.5898 107.426 70.5649C107.47 70.4754 107.545 70.4993 107.537 70.5202C107.529 70.541 107.515 70.5619 107.518 70.6006C107.521 70.6394 107.518 70.6394 107.534 70.6394C107.55 70.6394 107.534 70.6394 107.561 70.6394C107.588 70.6394 107.58 70.6215 107.583 70.6126C107.58 70.5948 107.571 70.5788 107.558 70.5678C107.518 70.5291 107.486 70.5291 107.475 70.5112Z" fill="#212121"/>
<path d="M107.82 71.1016C107.799 71.0953 107.782 71.0807 107.771 71.0608C107.76 71.0409 107.756 71.0171 107.76 70.9943C107.76 70.9406 107.801 70.9019 107.839 70.9078C107.849 70.91 107.859 70.9144 107.868 70.9208C107.876 70.9273 107.884 70.9356 107.89 70.9454C107.896 70.9551 107.9 70.9661 107.901 70.9775C107.903 70.989 107.903 71.0008 107.901 71.0122C107.9 71.0357 107.891 71.058 107.876 71.0746C107.861 71.0912 107.841 71.1009 107.82 71.1016Z" fill="#212121"/>
<path d="M108.343 70.7945C108.343 70.8362 108.268 70.8571 108.192 70.8362C108.117 70.8153 108.063 70.7676 108.071 70.7259C108.079 70.6841 108.149 70.6663 108.225 70.6842C108.3 70.702 108.351 70.7676 108.343 70.7945Z" fill="#212121"/>
<path d="M108.54 70.6902C108.503 70.6902 108.468 70.6515 108.462 70.5919C108.457 70.5322 108.484 70.4786 108.524 70.4756C108.565 70.4726 108.597 70.5173 108.602 70.577C108.608 70.6366 108.581 70.6873 108.54 70.6902Z" fill="#212121"/>
<path d="M108.907 70.3681C108.869 70.3681 108.836 70.3204 108.836 70.2608C108.836 70.2011 108.869 70.1534 108.907 70.1534C108.944 70.1534 108.977 70.2011 108.977 70.2608C108.977 70.3204 108.947 70.3681 108.907 70.3681Z" fill="#212121"/>
<path d="M109.189 69.9299C109.189 69.915 109.238 69.8554 109.327 69.915C109.353 69.9328 109.373 69.9586 109.386 69.9894C109.399 70.0201 109.404 70.0544 109.399 70.0879C109.392 70.133 109.37 70.1733 109.337 70.2009C109.304 70.2286 109.263 70.2414 109.221 70.237C109.184 70.2405 109.148 70.2293 109.117 70.2055C109.087 70.1817 109.066 70.1468 109.057 70.107C109.047 70.0672 109.051 70.0252 109.068 69.9884C109.084 69.9516 109.112 69.9224 109.146 69.9061C109.238 69.8554 109.294 69.924 109.278 69.9389C109.262 69.9538 109.229 69.9389 109.203 69.9955C109.195 70.0037 109.19 70.0135 109.186 70.0244C109.183 70.0352 109.182 70.0468 109.184 70.0581C109.184 70.0581 109.2 70.079 109.227 70.082C109.254 70.085 109.267 70.082 109.273 70.0611C109.278 70.0402 109.273 70.0194 109.273 69.9985C109.273 69.9776 109.197 69.9478 109.189 69.9299Z" fill="#212121"/>
<path d="M109.92 69.6795C109.89 69.7123 109.839 69.7033 109.788 69.6974C109.737 69.6914 109.683 69.6735 109.667 69.6348C109.651 69.596 109.71 69.5245 109.81 69.5424C109.909 69.5603 109.947 69.6527 109.92 69.6795Z" fill="#212121"/>
<path d="M110.289 69.465C110.27 69.5037 110.195 69.5008 110.114 69.4859C110.033 69.471 109.963 69.4441 109.957 69.3994C109.952 69.3547 110.035 69.31 110.138 69.3308C110.24 69.3517 110.308 69.4292 110.289 69.465Z" fill="#212121"/>
<path d="M110.5 69.2771C110.462 69.2771 110.435 69.2204 110.438 69.1608C110.44 69.1012 110.478 69.0565 110.519 69.0624C110.559 69.0684 110.583 69.1161 110.578 69.1757C110.572 69.2353 110.537 69.2771 110.5 69.2771Z" fill="#212121"/>
<path d="M110.817 68.7255C110.804 68.7255 110.844 68.6451 110.941 68.6659C110.971 68.6741 110.998 68.6921 111.019 68.7176C111.04 68.7432 111.053 68.775 111.057 68.809C111.063 68.8525 111.055 68.8968 111.035 68.9348C111.015 68.9727 110.983 69.0019 110.946 69.0177C110.908 69.0311 110.866 69.0288 110.828 69.0113C110.791 68.9939 110.76 68.9624 110.742 68.9223C110.726 68.8902 110.722 68.8533 110.729 68.8179C110.736 68.7825 110.754 68.7509 110.779 68.7285C110.866 68.66 110.928 68.7285 110.914 68.7285C110.901 68.7285 110.868 68.7554 110.849 68.7971C110.83 68.8388 110.849 68.8329 110.849 68.8418C110.855 68.8485 110.861 68.8538 110.869 68.8574C110.876 68.861 110.884 68.8628 110.892 68.8627C110.901 68.8575 110.908 68.8502 110.913 68.8413C110.918 68.8325 110.921 68.8225 110.922 68.812C110.923 68.8022 110.921 68.7924 110.917 68.7835C110.914 68.7746 110.908 68.767 110.901 68.7613C110.871 68.7375 110.828 68.7434 110.817 68.7255Z" fill="#212121"/>
<path d="M111.279 68.7108C111.258 68.7015 111.241 68.6836 111.231 68.6609C111.222 68.6382 111.221 68.6124 111.228 68.5886C111.228 68.529 111.279 68.4873 111.317 68.4962C111.354 68.5051 111.376 68.5588 111.365 68.6184C111.354 68.678 111.317 68.7198 111.279 68.7108Z" fill="#212121"/>
<path d="M111.669 68.3469C111.649 68.3406 111.632 68.3261 111.621 68.3062C111.61 68.2863 111.606 68.2625 111.61 68.2396C111.609 68.2275 111.61 68.2151 111.613 68.2035C111.617 68.1919 111.622 68.1813 111.63 68.1725C111.638 68.1638 111.647 68.1571 111.658 68.153C111.668 68.149 111.68 68.1476 111.691 68.149C111.702 68.1504 111.712 68.1545 111.721 68.1611C111.731 68.1678 111.739 68.1766 111.744 68.1871C111.75 68.1976 111.754 68.2094 111.755 68.2216C111.756 68.2338 111.754 68.2461 111.75 68.2575C111.75 68.281 111.741 68.3033 111.726 68.3199C111.711 68.3365 111.691 68.3462 111.669 68.3469Z" fill="#212121"/>
<path d="M112.22 67.9953C112.198 68.0311 112.131 68.0251 112.061 67.9953C111.991 67.9655 111.929 67.9506 111.923 67.9058C111.918 67.8611 111.996 67.8194 112.093 67.8432C112.19 67.8671 112.241 67.9595 112.22 67.9953Z" fill="#212121"/>
<path d="M112.484 67.7866C112.449 67.8044 112.395 67.7478 112.417 67.6703C112.439 67.5928 112.509 67.5779 112.53 67.6137C112.548 67.6434 112.555 67.6798 112.549 67.715C112.543 67.7312 112.535 67.7458 112.523 67.7581C112.512 67.7704 112.499 67.7801 112.484 67.7866Z" fill="#212121"/>
<path d="M112.802 67.4435C112.781 67.4372 112.764 67.4226 112.753 67.4027C112.742 67.3828 112.738 67.3591 112.742 67.3362C112.742 67.2825 112.786 67.2438 112.823 67.2498C112.861 67.2557 112.888 67.3004 112.883 67.3541C112.882 67.3776 112.873 67.3999 112.858 67.4165C112.843 67.4331 112.823 67.4428 112.802 67.4435Z" fill="#212121"/>
<path d="M108.915 51.6082L107.127 53.5965L111.457 58.3037C111.457 58.3037 112.338 55.4657 112.953 52.9675C113.387 51.2027 108.915 51.6082 108.915 51.6082Z" fill="#FFC300"/>
<path d="M108.217 53.7756C108.179 53.7756 108.138 53.6892 108.128 53.5759C108.117 53.4626 108.141 53.3643 108.179 53.3613C108.217 53.3583 108.257 53.4448 108.268 53.561C108.279 53.6773 108.254 53.7756 108.217 53.7756Z" fill="#212121"/>
<path d="M108.628 53.868C108.628 53.9098 108.561 53.9455 108.477 53.9455C108.394 53.9455 108.329 53.9098 108.329 53.868C108.329 53.8263 108.397 53.7905 108.477 53.7905C108.558 53.7905 108.628 53.8233 108.628 53.868Z" fill="#212121"/>
<path d="M108.742 54.5297C108.707 54.5059 108.71 54.4373 108.71 54.3628C108.71 54.2883 108.71 54.2227 108.742 54.1988C108.775 54.175 108.85 54.2406 108.85 54.3628C108.85 54.485 108.78 54.5565 108.742 54.5297Z" fill="#212121"/>
<path d="M109.098 54.5953C109.081 54.5953 109.143 54.5 109.259 54.5417C109.294 54.5541 109.326 54.5767 109.351 54.6071C109.375 54.6375 109.392 54.6746 109.4 54.7146C109.405 54.7687 109.393 54.8231 109.366 54.8685C109.339 54.9138 109.298 54.9472 109.251 54.9628C109.204 54.9784 109.153 54.9752 109.108 54.9538C109.063 54.9324 109.026 54.8942 109.003 54.8458C108.991 54.8059 108.989 54.7628 108.999 54.722C109.009 54.6812 109.029 54.6444 109.057 54.6162C109.074 54.5978 109.094 54.5839 109.117 54.5756C109.139 54.5673 109.163 54.5649 109.187 54.5685C109.222 54.5685 109.232 54.5983 109.227 54.6043C109.222 54.6103 109.168 54.6222 109.133 54.6878C109.098 54.7533 109.116 54.8398 109.211 54.813C109.305 54.7861 109.281 54.6907 109.211 54.643C109.141 54.5954 109.108 54.6132 109.098 54.5953Z" fill="#212121"/>
<path d="M109.564 55.4002C109.529 55.4002 109.516 55.3197 109.534 55.2511C109.553 55.1825 109.602 55.1378 109.64 55.1498C109.677 55.1617 109.691 55.2302 109.669 55.2988C109.648 55.3674 109.602 55.4121 109.564 55.4002Z" fill="#212121"/>
<path d="M109.969 55.3137C110.006 55.3137 110.02 55.4389 109.998 55.5761C109.977 55.7132 109.928 55.8205 109.891 55.8116C109.853 55.8026 109.839 55.6864 109.861 55.5492C109.882 55.4121 109.931 55.3078 109.969 55.3137Z" fill="#212121"/>
<path d="M110.398 55.8623C110.398 55.9041 110.33 55.9488 110.236 55.9607C110.142 55.9726 110.066 55.9458 110.061 55.9041C110.055 55.8623 110.128 55.8176 110.223 55.8057C110.317 55.7938 110.398 55.8116 110.398 55.8623Z" fill="#212121"/>
<path d="M110.573 56.0888C110.573 56.0709 110.629 56.0232 110.732 56.0709C110.763 56.0859 110.79 56.1084 110.812 56.1368C110.834 56.1652 110.85 56.1987 110.859 56.2348C110.868 56.2846 110.862 56.3364 110.842 56.3821C110.822 56.4279 110.789 56.4652 110.748 56.4882C110.706 56.5158 110.656 56.5247 110.609 56.5131C110.561 56.5014 110.519 56.4702 110.492 56.4256C110.474 56.3881 110.469 56.3453 110.475 56.3037C110.482 56.2622 110.501 56.2243 110.53 56.1961C110.547 56.176 110.569 56.162 110.594 56.1556C110.618 56.1493 110.644 56.1509 110.667 56.1603C110.7 56.1752 110.705 56.1961 110.7 56.2021C110.694 56.208 110.643 56.2021 110.613 56.2736C110.584 56.3451 110.613 56.3928 110.691 56.3571C110.77 56.3213 110.743 56.2259 110.691 56.1722C110.64 56.1186 110.576 56.1126 110.573 56.0888Z" fill="#212121"/>
<path d="M111.026 57.141C110.988 57.141 110.956 57.0277 110.956 56.8906C110.956 56.7535 110.988 56.6432 111.026 56.6432C111.063 56.6432 111.096 56.7535 111.096 56.8906C111.096 57.0277 111.066 57.141 111.026 57.141Z" fill="#212121"/>
<path d="M110.373 49.5693C110.271 49.8015 110.14 50.0171 109.985 50.2103C109.715 50.5859 109.343 51.1046 108.907 51.6322C108.47 52.1599 108.071 52.6577 107.777 53.0035C107.626 53.1994 107.459 53.379 107.278 53.5401C107.4 53.3211 107.542 53.1163 107.702 52.929C107.971 52.5683 108.37 52.0734 108.801 51.5309L109.907 50.1387C110.05 49.9371 110.206 49.7468 110.373 49.5693Z" fill="#212121"/>
<path d="M113.4 67.408C113.4 67.4497 113.319 67.4646 113.239 67.4438C113.158 67.4229 113.101 67.3692 113.109 67.3275C113.117 67.2857 113.193 67.2708 113.271 67.2917C113.349 67.3126 113.408 67.3662 113.4 67.408Z" fill="#212121"/>
<path d="M113.605 67.0443C113.605 67.0294 113.621 66.9817 113.7 66.9757C113.725 66.976 113.75 66.9846 113.771 67.0006C113.792 67.0165 113.809 67.0389 113.818 67.0651C113.827 67.084 113.832 67.1048 113.832 67.126C113.832 67.1472 113.828 67.1682 113.82 67.1874C113.812 67.2066 113.8 67.2236 113.786 67.237C113.771 67.2504 113.753 67.26 113.735 67.2649C113.6 67.3036 113.484 67.1576 113.543 67.0443C113.552 67.0272 113.565 67.0135 113.581 67.0049C113.597 66.9964 113.615 66.9935 113.632 66.9966C113.656 66.9966 113.662 67.0234 113.656 67.0323C113.648 67.0391 113.641 67.0481 113.637 67.0586C113.633 67.069 113.631 67.0806 113.632 67.092C113.632 67.092 113.673 67.1248 113.697 67.1158C113.698 67.1095 113.697 67.1031 113.694 67.0976C113.691 67.0922 113.686 67.088 113.681 67.086C113.651 67.0651 113.613 67.0651 113.605 67.0443Z" fill="#212121"/>
<path d="M90.6612 56.4764C90.5075 55.9129 88.5746 54.7563 88.8658 54.4433C89.2432 54.0319 90.8337 55.749 90.9766 55.8831C91.1195 56.0173 91.2947 55.7877 91.1599 55.6744C90.9658 55.5105 88.9547 53.7457 89.324 53.3403C89.5289 53.1137 89.8632 53.5698 89.8632 53.5698C89.8632 53.5698 91.6371 55.3793 91.8069 55.1796C91.9767 54.9799 90.9658 53.8769 90.6019 53.534C90.2379 53.1912 90.2406 52.8603 90.5048 52.8067C90.6827 52.7679 91.8204 53.7934 92.1708 54.1452C92.5213 54.4969 93.4783 55.4747 93.3516 54.5595C93.3504 54.5457 93.3504 54.5317 93.3516 54.5178C93.206 53.6235 93.3516 52.8752 93.5403 52.6964C93.58 52.6524 93.6311 52.6232 93.6865 52.613C93.742 52.6027 93.7989 52.6119 93.8494 52.6391C93.8998 52.6664 93.9414 52.7104 93.9681 52.765C93.9949 52.8196 94.0055 52.8821 93.9986 52.9438C94.0078 52.9879 94.0078 53.0338 93.9986 53.0779C93.9986 53.0958 93.9986 53.1227 93.9986 53.1435C93.9901 53.4558 94.0091 53.7683 94.0552 54.0766C94.0923 54.3537 94.1716 54.6218 94.2898 54.8696C94.4272 55.1677 94.5593 55.3942 94.6672 55.594C95.9585 56.381 99.676 58.4588 103.399 58.7748C104.073 58.8314 107.483 53.9544 107.483 53.9544L110.829 57.5883C110.376 58.4439 110.217 58.6406 107.944 62.0778C104.237 67.6852 92.5779 58.3991 92.5779 58.3991L92.4701 58.3395C91.5845 57.861 90.724 57.3275 89.8929 56.7417C88.89 55.9636 88.9493 55.8623 89.0491 55.743C89.2755 55.43 90.8175 57.0547 90.6612 56.4764Z" fill="#FFBE9D"/>
</svg>
